<?xml version="1.0" encoding="utf-8"?>
<!-- Generator: Adobe Illustrator 16.0.0, SVG Export Plug-In . SVG Version: 6.00 Build 0)  -->
<!DOCTYPE svg PUBLIC "-//W3C//DTD SVG 1.1//EN" "http://www.w3.org/Graphics/SVG/1.1/DTD/svg11.dtd">
<svg version="1.1" id="图层_1" xmlns="http://www.w3.org/2000/svg" xmlns:xlink="http://www.w3.org/1999/xlink" x="0px" y="0px"
	 width="600px" height="450px" viewBox="0 0 1024 768" style="enable-background:new 0 0 1024 768;" xml:space="preserve">
<rect style="fill:#FF7BAC;" width="1024" height="768"/>
<path style="fill:#FF6287;" d="M671.746,350.758c0,0,0.783-0.616-2.7-2.518c-0.592-0.322-3.295-1.178-3.295-1.178
	s-0.141-8.939-0.575-11.544c-0.408-2.444-0.447-6.007-4.156-8.625c-5.298-3.739-9.369-3.455-12.277-2.155
	c-4.477,2.001-5.694,5.544-6.65,8.159c-0.937,2.564-1.268,8.293-2.046,10.934c-0.698,2.365-3.241,6.204-4.816,7.849
	c-5.16,5.389-11.636,5.53-16.03,5.235c-7.265-0.488-11.041-3.478-14.068-6.617c-3.575-3.708-7.133-10.413-8.952-14.32
	c-4.732-10.161-4.859-18.628-4.859-18.628s-2.047,5.234-2.175,14.78c-0.124,9.241,2.686,22.631,2.686,22.631
	s-7.575-5.698-9.72-8.157c-8.057-9.24-9.72-21.095-9.72-21.095s-0.994,23.336,3.837,34.948c1.564,3.761,3.158,11.015,12.687,20.318
	c2.783,2.717,6.069,5.188,10.317,8.319c6.396,4.715,20.769,7.391,20.769,7.391V418h8.151l0.128-3h-3.836l-0.408-18.034l4.965-0.019
	V418h7.721l-0.281-3.275l-4.439-0.23v-17.547c0,0,6.229-0.619,19.178-10.161c16.961-12.5,14.96-31.406,14.96-31.406
	s0.843-1.599,2.257-2.591C670.043,351.633,671.746,350.758,671.746,350.758z"/>
<path style="stroke:#000000;stroke-miterlimit:10;" d="M804.721,68.398c9.83,7.177,29.572,22.693,35.483,33.333
	c7.22,12.996,11.968,43.446,11.674,58.311c-0.223,11.273-11.55,32.605-10.599,43.84c3.074,36.32,44.09,100.085,57.592,133.943
	c7.391,18.534,14.786,58.008,19.354,77.431c4.286,18.224,11.873,54.895,16.129,73.125c4.343,18.604,12.122,56.113,18.28,74.197
	c7.954,23.357,37.691,65.737,39.785,90.323c0.847,9.939-3.677,30.742-9.678,38.711c-7.101,9.429-29.606,20.096-40.86,23.656
	c-19.593,6.199-61.352,6.327-81.882,7.231c-19.855,0.875-59.667,1.296-79.5,0c-16.21-1.06-49.136-2.966-64.425-8.455
	c-15.68-5.629-47.966-21.025-56.497-35.335c-11.862-19.896-11.995-70.134-5.868-92.474c7.317-26.677,63.835-63.774,62.365-91.397
	c-0.882-16.567-28.557-42.393-43.011-50.538c-8.778-4.947-29.715-6.792-39.785-6.451c-11.86,0.401-36.313,4.244-46.236,10.753
	c-8.677,5.69-22.977,23.106-24.731,33.333c-1.236,7.207,4.668,21.794,8.603,27.957c3.893,6.097,14.8,16.643,21.505,19.354
	c6.982,2.823,22.821,2.979,30.108,1.075c7.003-1.83,20.864-8.935,24.73-15.054c4.187-6.626,6.285-23.967,3.227-31.183
	c-1.868-4.407-10.564-10.17-15.055-11.828c-6.057-2.237-19.69-3.146-25.806-1.075c-3.978,1.348-11.798,6.702-12.903,10.753
	c-1.053,3.855,2.415,12.369,5.376,15.054c2.463,2.233,10.024,4.889,12.903,3.226c3.39-1.958,0.992-12.963,4.301-15.054
	c2.765-1.747,10.896-0.432,12.903,2.15c4.032,5.188,2.633,21.742-2.204,26.188c-5.729,5.268-23.651,2.156-31.129,0
	c-3.968-1.144-11.841-5.261-13.979-8.793c-3.516-5.809-4.403-20.667-2.15-27.072c1.725-4.903,9.485-13.074,14.258-15.135
	c7.833-3.383,25.65-0.959,34.129,0c7.23,0.817,23.837,0.81,28.371,6.5c8.213,10.308,5.104,40.569,0,52.721
	c-3.122,7.435-15.531,19.622-23.033,22.58c-10.247,4.04-33.545,2.245-44.048-1.075c-10.166-3.214-28.428-15.662-35.483-23.655
	c-6.763-7.66-18.837-26.356-18.279-36.56c0.541-9.902,14.391-26.425,21.505-33.333c10.815-10.502,36.905-27.875,51.613-31.183
	c18.188-4.09,58.142-1.955,74.193,7.526c19.133,11.302,50.647,50.897,50.538,73.118c-0.138,27.969-59.206,63.938-64.517,91.398
	c-3.986,20.613,5.65,65.814,19.354,81.72c6.135,7.12,27.36,19.59,34.9,13.979c20.354-15.146-12.145-75.889-9.094-101.075
	c3.384-27.934,28.832-79.396,36.56-106.451c8.222-28.785,20.724-87.395,26.79-116.71c6.379-30.826,18.54-100.475,0-125.914
	c-7.729-10.606-38.721-9.321-49.973-16.075c-10.595-6.359-28.823-24.001-35.484-34.409c-5.684-8.879-10.726-29.757-13.979-39.785
	c-4.067-12.54-24.063-40.913-15.054-50.538c8.963-9.577,38.196,13.605,51.163,11.624c11.056-1.689,33.043-12.821,38.675-22.484
	c5.401-9.267-8.791-37.516,0.484-42.904C768.299,34.566,793.544,60.238,804.721,68.398z"/>
<path style="fill:#FFFFFF;stroke:#000000;stroke-miterlimit:10;" d="M707.245,200.257"/>
<line style="fill:none;stroke:#000000;stroke-miterlimit:10;" x1="715.447" y1="208.21" x2="675.688" y2="232.914"/>
<line style="fill:none;stroke:#000000;stroke-miterlimit:10;" x1="725.495" y1="216.586" x2="696.118" y2="256.57"/>
<line style="fill:none;stroke:#000000;stroke-miterlimit:10;" x1="740.945" y1="223.644" x2="725.495" y2="269.473"/>
<line style="fill:none;stroke:#000000;stroke-miterlimit:10;" x1="843.489" y1="109.237" x2="874.613" y2="79.15"/>
<line style="fill:none;stroke:#000000;stroke-miterlimit:10;" x1="846.979" y1="121.267" x2="891.817" y2="109.237"/>
<line style="fill:none;stroke:#000000;stroke-miterlimit:10;" x1="850.455" y1="140.214" x2="907.946" y2="140.441"/>
<circle style="stroke:#000000;stroke-miterlimit:10;" cx="676.688" cy="233.914" r="5"/>
<circle style="stroke:#000000;stroke-miterlimit:10;" cx="695.968" cy="256.957" r="5"/>
<circle style="stroke:#000000;stroke-miterlimit:10;" cx="725.495" cy="269.473" r="5"/>
<circle style="stroke:#000000;stroke-miterlimit:10;" cx="910.946" cy="141.441" r="5"/>
<circle style="stroke:#000000;stroke-miterlimit:10;" cx="895.817" cy="109.237" r="5"/>
<circle style="stroke:#000000;stroke-miterlimit:10;" cx="878.613" cy="79.15" r="5"/>
<path style="fill:#FFFFFF;stroke:#000000;stroke-miterlimit:10;" d="M814.322,114.237l-8.656-5c0,0-3.334,0-11.596,8.161
	c-8.232,8.132-9.78,21.042-9.78,21.042s4.023-11.953,17.065-18.816C809.666,115.252,814.322,114.237,814.322,114.237z"/>
<path style="fill:#FFFFFF;stroke:#000000;stroke-miterlimit:10;" d="M757.333,153.193c0,0-9.001-1.083-22.024,1.608
	c-11.426,2.361-14.813,11.2-14.813,11.2l5,8.848c0,0,3.171-7.848,12.257-13.169C742.355,158.984,757.333,153.193,757.333,153.193z"
	/>
<path style="fill:#FFFFFF;stroke:#000000;stroke-miterlimit:10;" d="M747.07,202.5c0-4.166,18.987,5.524,31.262-5.166
	c10.334-9,5.958-16.996,12.636-20.834c5.209-2.994,17.684,4.272,26.554-2.581c12.811-9.897,12.134-21.889,15.227-21.808
	c3.128,0.082,4.538,15.599-9.749,26.223c-13,9.667-22.591,1.938-28.216,4.785c-5.268,2.666-2.367,11.685-13.493,19.381
	C768.999,211.001,747.07,207.253,747.07,202.5z"/>
<path style="fill:#FFFFFF;" d="M191.993,516.828c0,0-21.249-53.063-66.993-34.828c-20.067,7.999-33.314,21.106-38,46
	c-16,85,109,130,109,130s129-54,102.79-133.933C290.357,498.351,275,484,251,479C208.092,470.061,191.993,516.828,191.993,516.828z"
	/>
<path style="fill:#FF7BAC;" d="M195.738,647.16C176.038,639.135,92.219,598.899,105,531c3.688-19.592,8.989-19.872,18-28.325
	c4.057-3.806,15.313-6.675,20-6.675c25.896,0,39.538,24.244,39.71,24.547c2.05,3.604,10.081,15.169,10.081,15.169
	s6.918-12.037,8.676-15.688c0.14-0.29,4.976-10.442,29.533-22.028c2.91-1.373,17.483-3.314,21-2.272
	c24.168,7.161,31.462,17.592,37.287,31.456C315.057,588.523,215.618,637.951,195.738,647.16z"/>
<line style="fill:none;stroke:#FFFFFF;stroke-width:3;stroke-miterlimit:10;" x1="192.5" y1="0" x2="192.5" y2="515"/>
<path style="fill:#FFFFFF;" d="M157.695,595.721c0,0-0.662-0.488,2.286-1.993c0.501-0.254,2.789-0.931,2.789-0.931
	s0.124-7.079,0.493-9.142c0.346-1.936,0.381-4.758,3.521-6.828c4.484-2.959,7.929-2.732,10.389-1.701
	c3.787,1.587,4.815,4.394,5.623,6.465c0.792,2.031,1.068,6.569,1.725,8.66c0.59,1.874,2.739,4.916,4.071,6.22
	c4.363,4.27,9.842,4.385,13.561,4.153c6.147-0.383,9.344-2.749,11.907-5.234c3.027-2.935,6.041-8.242,7.583-11.337
	c4.009-8.045,4.122-14.752,4.122-14.752s1.729,4.146,1.832,11.707c0.1,7.319-2.284,17.924-2.284,17.924s6.413-4.51,8.228-6.457
	c6.822-7.314,8.235-16.702,8.235-16.702s0.829,18.483-3.265,27.678c-1.326,2.978-2.678,8.722-10.745,16.086
	c-2.356,2.149-5.138,4.104-8.734,6.583c-5.415,3.731-17.576,5.844-17.576,5.844l-0.012,17.039l-6.897-0.004l-0.106-2.377
	l3.246,0.003l0.354-14.283l-4.2-0.018l-0.011,16.674l-6.533-0.004l0.24-2.594l3.756-0.181l0.009-13.896c0,0-5.27-0.494-16.221-8.057
	c-14.344-9.908-12.641-24.882-12.641-24.882s-0.713-1.266-1.908-2.053C159.136,596.415,157.695,595.721,157.695,595.721z"/>
<line style="fill:#B3B3B3;stroke:#B3B3B3;stroke-width:2;stroke-miterlimit:10;" x1="33" y1="0" x2="33" y2="768"/>
<line style="fill:#CCCCCC;stroke:#CCCCCC;stroke-miterlimit:10;" x1="465.5" y1="0" x2="465.5" y2="768"/>
<line style="fill:#CCCCCC;stroke:#CCCCCC;stroke-miterlimit:10;" x1="397.5" y1="0" x2="397.5" y2="768"/>
<line style="fill:#CCCCCC;stroke:#CCCCCC;stroke-miterlimit:10;" x1="1001.5" y1="0" x2="1001.5" y2="768"/>
<line style="fill:#CCCCCC;stroke:#CCCCCC;stroke-miterlimit:10;" x1="317.5" y1="0" x2="317.5" y2="768"/>
<line style="fill:#CCCCCC;stroke:#CCCCCC;stroke-miterlimit:10;" x1="442.5" y1="0" x2="442.5" y2="768"/>
<line style="fill:#CCCCCC;stroke:#CCCCCC;stroke-miterlimit:10;" x1="533.5" y1="0" x2="533.5" y2="768"/>
</svg>
