<?xml version="1.0" encoding="utf-8"?>
<!-- Generator: Adobe Illustrator 16.0.0, SVG Export Plug-In . SVG Version: 6.00 Build 0)  -->
<!DOCTYPE svg PUBLIC "-//W3C//DTD SVG 1.1//EN" "http://www.w3.org/Graphics/SVG/1.1/DTD/svg11.dtd">
<svg version="1.1" id="图层_1" xmlns="http://www.w3.org/2000/svg" xmlns:xlink="http://www.w3.org/1999/xlink" x="0px" y="0px"
	 width="380px" height="580px" viewBox="0 1.5 380 580" enable-background="new 0 1.5 380 580" xml:space="preserve">
<path fill="#F15A24" stroke="#B5441B" stroke-miterlimit="10" d="M259.25,544.25c0,0-6.73,20.043-6.75,27
	c-0.008,2.637,2.5,10.25,2.5,10.25h-32L259.25,544.25z"/>
<path fill="#F15A24" stroke="#B5441B" stroke-miterlimit="10" d="M211.47,190.94c0,0,2.573,8.467,2.448,11.372
	c-0.09,2.082-0.896,6.578-2.448,7.969c-9.181,8.228-35.221,12.171-47.503,13.232c-16.071,1.388-64.467,2.744-64.467,2.744L59,230.25
	l22.43-2.211L137,167.75l-10-17.418c0,0-80.323,50.694-98.5,75.917c-3.56,4.939-9.813,17.188-8,23c1.741,5.579,15.942,9.832,22,10.5
	c30.188,3.331,123.752-5.153,123.752-5.153l2.575-5.221c0,0-7.97,17.711-14.027,25.374c-4.811,6.087-20.384,13.31-23.301,20.5
	c-1.708,4.209,1.936,13.492,2.5,18c4.942,39.486-5.995,103.988-5.995,138.5c0,21.5,9.713,42.186,9.995,50.125
	c0.759,21.393-31.5,79.625-31.5,79.625H226c0,0,28.382-9.813,35-45.75c5.893-32-12.718-52.197-23.5-66
	c-9.089-11.635-40.002-26.449-42.5-41c-4.121-23.992,63.793-99.551,77-120c12.77-19.774,28.345-60.496,45.5-93.5
	c23-44.25,27.342-100.86,29.499-114.5c2.503-15.821,7.398-48.919,3-64c-0.968-3.319-7.044-8.872-10.499-9c-26.982-1.004-87,64-87,64
	l-3.5,29.652l71.959-47.609L321.5,61.75l-1,27c0,0-5.278,46.793-10,61.583c-4.68,14.657-20.565,42.417-34,49.917
	c-3.834,2.141-13.127,3.244-17.519,3.27c-3.634,0.021-11.543-1.131-14.481-3.27c-5.707-4.152-11-26-11-26l-3.5-37.484L211.47,190.94
	z"/>
<path fill="#F15A24" stroke="#B5441B" stroke-miterlimit="10" d="M155.333,148.916c0,0,7.214,15.216,17.8,25.667
	c9.32,9.201,16.654,11.96,22.517,14.651c2.766,1.269,9.467,3.327,11.715,3.298c3.365-0.043,7.006-4.212,8.424-6.454
	c4.152-6.562,8.648-20.011,9.961-27.663c0.705-4.106,0-16.666,0-16.666l12.75-43.5L221,64.417l-18.99-7.167L116,89.25l11.167,43.598
	l19,3.965L155.333,148.916z"/>
<g>
	<path fill="#666666" d="M170.644,133.653c0,0-7.933-5.793-11.922-6.233c-8.041-0.886-11.566-0.915-14.46,1.447
		c-1.55,1.265,2.575,5.491,3.899,6.991c1.133,1.284,2.613,1.324,2.613,1.324s6.152-3.542,8.024-4.011
		c1.292-0.323,3.984-0.591,5.307-0.442C166.255,132.971,170.644,133.653,170.644,133.653z"/>
	<path fill="#333333" d="M158.19,144.243c-2.803-0.895-5.207-2.497-6.084-3.163c0,0-2.252,0.427-3.012,0.42
		c-0.946-0.01-3.736-0.6-3.736-0.6s2.486-0.927,3.215-1.418c0.011-0.008,1.064-1.063,2.551-2.681
		c1.531-1.665,4.887-3.687,8.641-4.19c1.531-0.205,3.004-0.291,4.375-0.254c5.184,0.138,7.516,1.972,7.765,2.181l1.484,1.245
		l-1.198,1.523c0,0,0.022,1.253-2.593,3.275C166.209,143.201,161.085,145.166,158.19,144.243z"/>
	<path stroke="#000000" stroke-width="0.75" stroke-miterlimit="10" d="M173.133,135.637c0,0-2.976-2.497-10.59-1.477
		c-3.343,0.448-6.285,2.311-7.434,3.561c-1.539,1.675-2.612,2.744-2.612,2.744s5.291,4.538,10.996,2.668
		c4.94-1.619,4.965-1.599,7.052-4.229C172.596,136.32,173.133,135.637,173.133,135.637z"/>
	<path fill="#FFFFFF" stroke="#000000" stroke-width="0.5" stroke-miterlimit="10" d="M161.015,142.098
		c-2.531-0.068-4.808-1.135-6.214-1.969c0.442-0.449,0.972-0.996,1.566-1.622c0.909-0.958,3.787-2.623,7.337-3.324
		c1.372-0.271,2.729-0.391,4.034-0.356c2.126,0.056,4.274,0.374,5.396,0.81c-0.564,0.72-1.674,1.558-2.042,1.892
		c-0.341,0.311-0.634,0.595-0.908,0.86c-1.31,1.269-2.032,1.967-6.273,3.311C162.99,141.99,162.016,142.125,161.015,142.098
		L161.015,142.098z"/>
	<path fill="#754C24" d="M164.575,141.484c-2.531-0.067-3.123-1.223-3.75-2.196c-0.553-0.857-0.585-2.974-0.585-2.974
		s2.205-1.596,6.192-1.522c2.126,0.04,5.579,0.408,6.7,0.844c-0.564,0.72-2.657,2.507-2.949,2.752
		C167.285,140.816,164.575,141.484,164.575,141.484z"/>
	<path fill="#42210B" d="M172.489,136.341c0,0-1.525-0.413-2.038-0.525c-0.65-0.142-2.265-0.408-2.655,0.129
		c-0.201,0.279,0.28,1.016,0.136,1.368c-0.167,0.409-0.747,0.494-1.186,0.545c-0.392,0.045-1.229-0.09-1.542-0.331
		c-0.228-0.176-0.519-1.026-0.519-1.026s-0.958-0.111-1.327-0.082c-1.666,0.134-3.039,1.017-3.039,1.017l-0.08-1.122
		c0,0,2.662-1.548,5.038-1.553c0.867-0.002,3.033,0.081,3.897,0.143c1.004,0.073,3.958,0.732,3.958,0.732L172.489,136.341z"/>
	
		<ellipse transform="matrix(0.0267 -0.9996 0.9996 0.0267 27.6324 300.0426)" fill="#FFFFFF" cx="167.899" cy="135.831" rx="0.932" ry="0.914"/>
</g>
<g>
	<path stroke="#000000" stroke-width="0.75" stroke-miterlimit="10" d="M212.07,116.557c0,0-6.92-2.782-12.473,1.764
		c-0.969,0.793-6.242,5.09-6.686,6.771c-0.627,2.375-0.964,3.656-0.964,3.656s5.319,2.298,12.159-0.935
		c2.006-0.948,3.757-2.159,5.807-6.707C211.38,117.859,212.07,116.557,212.07,116.557z"/>
	<path fill="#FFFFFF" stroke="#000000" stroke-width="0.5" stroke-miterlimit="10" d="M191.768,128.918
		c0.301-0.609,0.661-1.349,1.061-2.191c0.609-1.289,2.577-4.358,5.979-6.267c1.314-0.736,3.465-1.688,4.813-2.088
		c2.197-0.653,6.554-1.563,7.85-1.49c-0.337,0.929-2.271,4.09-2.534,4.556c-0.245,0.433-1.816,3.026-2.18,3.511
		c-1.034,1.376-2.745,2.279-4.338,2.932c-0.869,0.356-2.59,0.677-3.624,0.984C198.794,128.864,193.488,129.306,191.768,128.918z"/>
	<path fill="#754C24" d="M197.388,121.38c0,0-0.188,2.171,1.339,4.402c1.153,1.685,3.238,2.259,3.238,2.259s3.34-1.004,4.791-3.093
		c0.855-1.232,2.734-4.537,2.734-4.537s-0.285-1.486-0.56-1.896c-0.243-0.365-1.362-1.101-1.362-1.101s-3.26,0.77-4.332,1.08
		C199.979,119.436,197.388,121.38,197.388,121.38z"/>
	<path fill="#333333" d="M191.768,128.918c0,0-0.057-3.874,0.344-4.908c0.573-1.476,2.012-2.93,3.553-4.513
		c1.424-1.461,5.362-4.206,7.317-4.79c1.916-0.573,6.022-0.088,7.985-0.467c1.276-0.247,5.023-1.16,5.023-1.16
		s-3.596,8.088-5.506,10.294c-1.565,1.806-5.496,4.737-7.698,5.664C198.973,130.643,191.768,128.918,191.768,128.918l1.143,0.176
		c0,0,7.514,0.381,9.782-0.544c2.203-0.897,5.402-4.721,6.836-6.62c0.919-1.215,2.542-5.374,2.542-5.374s-6.578-0.972-8.393-0.42
		c-1.938,0.589-5.215,3.138-6.799,4.397c-1.183,0.94-3.243,3.141-3.969,4.558C192.457,125.981,191.768,128.918,191.768,128.918z"/>
	<path fill="#666666" d="M191.768,128.918c0,0-0.02-3.406,0.438-4.417c2.148-4.755,7.677-7.694,10.088-9.011
		c1.782-0.973,5.462-0.216,8.091-0.668c2.136-0.368,3.534-1.244,3.534-1.244s-1.18-4.33-2.475-5.222
		c-1.073-0.74-7.559,2.025-9.957,3.156c-2.84,1.338-7.957,4.703-9.023,7.655C191.613,121.519,191.768,128.918,191.768,128.918z"/>
	<path fill="#42210B" d="M197.385,121.367l0.251,2.031c0,0,0.721-0.805,1.909-1.338c1.016-0.455,1.31-0.249,1.31-0.249
		s0.103,1.594,1.373,1.988c1.017,0.316,2.1-0.116,2.591-0.973c0.475-0.829-0.275-2.143-0.275-2.143s0.34-0.888,1.449-1.295
		c0.72-0.264,2.938-0.88,2.938-0.88l-1.363-1.098c0,0-3.261,0.765-4.332,1.075C199.978,119.428,197.385,121.367,197.385,121.367z"/>
	<path fill="#FFFFFF" d="M205.548,120.657c0.101,0.525-0.312,1.046-0.921,1.161c-0.61,0.116-1.185-0.217-1.284-0.742
		c-0.101-0.526,0.312-1.047,0.923-1.163C204.874,119.798,205.448,120.131,205.548,120.657z"/>
</g>
<path fill="#FF7BAC" stroke="#BF5C81" stroke-miterlimit="10" d="M143.57,43.05c0,0-17.381,0.792-21.536,1.616
	c-13.533,2.686-20.666,13.207-23.64,20.428c-5.36,13.015-6.478,20.44-11.82,24.73c-2.877,2.31-20.96-1.076-20.96-1.076
	s12.982,5.699,17.624,6.242c3.252,0.38,13.021-1.403,13.021-1.403s-14.979,10.284-17.204,17.205
	c-2.333,7.255,6.245,20.983,3.763,27.451c-0.563,1.467-5.375,3.256-5.375,3.256s7.578-0.408,10.059,0
	c3.681,0.605,10.896,1.925,14.135,3.777c5.904,3.376,17.042,8.034,21.505,13.167c10.753,12.366,2.688,34.946,2.688,34.946
	l10.752-23.118c0,0,11.545,14.708,2.151,26.882c-7.855,10.18-22.806,6.651-22.806,6.651s25.999,8.77,37.096-11.554
	c4.846-8.875,4.839-16.403,4.839-16.403s17.857,13.11,15.273,9.403c-4.914-7.048-10.787-28.006-15.585-35.134
	c-6.728-9.996-30.107-36.635-30.107-36.635s12.38,5.13,16.129,7.527c4.742,3.031,17.205,14.516,17.205,14.516
	s-20.546-35.195-26.844-39.973c-15.592-11.828,27.919,20.619,27.919,20.619S141.139,84.97,145.722,90.9
	c9.139,11.828,30.645,20.968,30.645,20.968s-2.942-16.82,0.657-19.354c5.145-3.625,19.708-2.775,24.097-7.286
	c4.062-4.175,6.13-22.478,6.13-22.478s13.842,51.167,16.89,68.473c1.575,8.948,3.237,22.219,4.839,31.521
	c2.598,15.083-15.061,76.505-15.061,76.505s38.117-56.053,47.582-114.358c4-24.642-2.419-53.456-8.791-69.476
	c-5.26-13.225-23.668-37.018-36.021-44.086c-8.381-4.796-28.924-8.697-38.171-5.914C147.5,14.75,143.57,43.05,143.57,43.05z"/>
<path fill="none" stroke="#333333" stroke-miterlimit="10" d="M187.666,141.082c0,0,1.144,5.614,1,7.5c-0.157,2.078-2.332,8-2.332,8
	s4.283,0.375,5.422,1.167c0.73,0.508,1.91,1.833,1.91,1.833"/>
<path fill="none" stroke="#333333" stroke-miterlimit="10" d="M191,174.25c6.188,0.002,12.892-0.757,16.5-6.5"/>
<g>
	<path stroke="#000000" stroke-miterlimit="10" d="M132.786,524.844c0,0,32.214,2.906,72.176-9.611
		c12.881-4.033,49.971-20.449,49.971-20.449s5.411,14.5,6.317,19.559c0.834,4.652,0.597,14.219,0,18.908
		c-0.523,4.107-4.148,16.039-4.148,16.039s-64.084-9.43-85.602-11.039c-10.846-0.811-43.495-0.918-43.495-0.918L132.786,524.844z"/>
	<path fill="#FFFFFF" stroke="#000000" stroke-miterlimit="10" d="M132.786,524.844c0,0,31.214,3.406,65.093-7.527
		c33.6-10.844,57.054-22.533,57.054-22.533l-7.081-11.584c0,0-39.574,15.99-52.954,20.822c-21.397,7.729-58.517,9.447-58.517,9.447
		L132.786,524.844z"/>
</g>
<path fill="#754C24" d="M167.373,303.193c0,0-2.459,3.574-7.183,6.314c-4.636,2.689-8.19,2.221-8.19,2.221v3.041
	c0,0,3.755,1.168,8.824-2.342c5.531-3.832,7.08-8.227,7.08-8.227L167.373,303.193z"/>
<path fill="#006E34" stroke="#024E00" stroke-miterlimit="10" d="M191.948,218.328l-21.304,26.613l-5.037,8.792
	c0,0-9.085,17.649-13.609,22.386c-4.784,5.007-18.053,12.14-20.498,18.631c-1.602,4.252,2.5,18,2.5,18s0.973,9.221,1.113,14.514
	c0.346,13.023-7.107,87.986-7.107,87.986s13.495-13.5,21.495-37c4.267-12.535,10.477-64.59,10.477-84.5c0-20,4.523-35.5,4.523-35.5
	l6.144-13.309L191.948,218.328z"/>
<path fill="#754C24" d="M241.334,294.25c0,0-4.023,5.094-11.834,9c-7.666,3.834-13.5,3.166-13.5,3.166v4.334
	c0,0,6.167,1.666,14.548-3.338c9.146-5.461,11.687-11.723,11.687-11.723L241.334,294.25z"/>
<path fill="#006E34" stroke="#024E00" stroke-miterlimit="10" d="M249.08,202.193c0,0-6.398,31.353-10.68,41.056
	c-5.229,11.852-27.134,23.394-35.9,31.5c-4.938,4.565-13.136,15.497-16.166,21.5c-7.676,15.201-16.829,48.26-23.334,64
	c-5.472,13.238-15.119,41.83-26.125,51c-2.756,2.297-13.625,4.5-13.625,4.5s2.625,24.811,0,32.5c-0.562,1.645-3.768,3.83-4.25,5.5
	c-2.085,7.219,6,29.449,6,29.449s5.798-1.559,7.786-1.707c6.425-0.482,19.354,2.74,25.714,1.707c6.122-0.992,24.693-8.738,30-11.949
	c7.596-4.596,28.5-16.5,28.5-16.5s-15.694-12.242-20.103-17c-2.849-3.076-7.985-8.871-5.897-15.5
	c28.5-90.5,21.07-104.961,29.5-125.5c5.332-12.992,17.9-53.5,17.9-53.5L249.08,202.193z"/>
<path fill="#004923" d="M129.5,411.25c0,0,5.275-3.803,9.5-36.5c1.334-10.326,3.5-41.5,3.5-41.5s6.918,29.643,4,39
	C136.124,405.523,129.5,411.25,129.5,411.25z"/>
<path fill="#004923" d="M199,315.25c0,0-8.91,35.252-15.131,45.5c-13.29,21.891-28.369,44-28.369,44s19-18.5,30.472-42
	C191.373,351.684,199,315.25,199,315.25z"/>
<path fill="#004923" d="M124.405,434.746c0,0,6.46,11.285,5.095,15.004c-1.088,2.965-10.5,4-10.5,4l4-4L124.405,434.746z"/>
<path fill="#004923" d="M208.768,357.199c0,0-6.238,25.629-8.551,34.111c-1.914,7.021-6.174,20.943-8.27,27.914
	c-0.513,1.705-1.592,5.215-1.398,6.984c0.254,2.32,3.764,8.537,3.764,8.537l-10.443,14.004c0,0-4.093-7.404-6.619-8
	c-2.859-0.676-10.75,4.744-10.75,4.744s-1.322-8.947-3.5-10.748c-3.065-2.533-15.782-1.996-15.782-1.996s11.522-8.139,14.782-11.5
	C175.805,407.018,208.768,357.199,208.768,357.199z"/>
<path fill="#006E34" stroke="#000000" stroke-miterlimit="10" d="M124.593,483.744c0,0-3.955,5.404-5.936,6.256
	c-3.367,1.445-13.913-3.588-14.657,0c-0.897,4.33,17,4.908,17,4.908s-10.844,4.553-6.396,5.033c9.563,1.031,8.768-3.26,13.396,0.557
	c2.181,1.801,1.96,10.135,4.786,10.252c4.563,0.186,7.65-13.406,12.214-13.588c3.142-0.125,7.241,6.863,10.375,7.111
	c1.758,0.139,5.706-1.393,6.375-3.023c0.997-2.43-1.638-8.449,0-10.5c1.528-1.916,8.396,3.354,10.75,4.033
	c2.823,0.816,3.041,4.936,5.646,3.576c1.607-0.84,1.573-7.121,2.604-8.611c1.259-1.816,6.389-2.398,8.584-2.129
	c2.715,0.334,7.174,6.256,9.666,5.129c2.281-1.031,0.961-8.1,3-9.549c1.379-0.98,5.869,1.639,6.768,0.205
	c1.475-2.354-1.08-4.984,0-7.156c1.233-2.479,4.465-4.031,7.232-4c2.658,0.029,4.356,2.408,6.75,1.25c2.194-1.061,0-9.75,0-9.75
	s5.197,4.889,6.367,3.5c2.781-3.303-10.776-13.5-10.776-13.5s-7.173,4.293-9.573,5.707c-6.867,4.043-20.675,12.021-27.768,15.654
	c-4.476,2.291-13.782,6.373-18.708,7.389c-4.602,0.949-14.114,0.43-18.792,0c-2.01-0.184-5.994-1.109-8.011-1.029
	C132.708,481.578,124.593,483.744,124.593,483.744z"/>
<path fill="#004923" d="M132.786,491.75c-2.115,0.359-3.405,5.877-3.096,8c0.275,1.893,3.096,11,3.096,11s5.025-8.021,5.214-10
	C138.247,498.16,135.35,491.314,132.786,491.75z"/>
<path fill="#004923" d="M150.75,486.406c0,0-0.242,13.996,1.25,15.844c1.256,1.555,6.589,1.418,8,0
	c1.675-1.684-1.5-16.051-1.5-16.051L150.75,486.406z"/>
<path fill="#004923" d="M170.71,482.004c0,0-0.152,7.922,0.79,9.246c0.882,1.24,6.646,7.109,6.646,7.109l2.854-23.25L170.71,482.004
	z"/>
<path fill="#004923" d="M208.768,465.25c-0.07,2.129,5.119,4.238,7.232,4.5c1.824,0.225,6.75,3.75,6.75,3.75
	s-0.701-13.467-2.75-14.25C217.027,458.111,208.873,462.068,208.768,465.25z"/>
<g>
	<path fill="none" stroke="#BF5C81" stroke-miterlimit="10" d="M145.5,49.25c-3.422-8.774-31.174-9.11-44.512,4.602
		c-5.226,5.373-7.61,13.776-10.627,20.397c-3.417,7.498-10.175,29.356-17.861,34.001"/>
	<path fill="none" stroke="#BF5C81" stroke-miterlimit="10" d="M142,55.25c-7.216-5.021-23.631,4.532-27.973,10.516
		c-8.82,12.156-2.963,33.676,1.973,45.484c4.991,11.939,14.575,22.877,22.359,33.225c8.859,11.775,20.723,26.648,8.859,36.275"/>
	<path fill="none" stroke="#BF5C81" stroke-miterlimit="10" d="M119.5,100.75c8.785-1.417,18.886,8.326,23,14.5"/>
	<path fill="none" stroke="#BF5C81" stroke-miterlimit="10" d="M135.5,87.25c4.564,4.054,6.456,9.541,12,13"/>
	<path fill="none" stroke="#BF5C81" stroke-miterlimit="10" d="M151,65.25c5.008,8.129,10.309,15,13.111,24.026
		c1.371,4.415,2.527,9.801,5.389,13.474"/>
	<path fill="none" stroke="#BF5C81" stroke-miterlimit="10" d="M197.5,40.25c9.115-1.166,18.381,7.427,23.525,14
		c8.84,11.292,13.855,24.516,16.473,38.418c1.762,9.36,2.483,20.608,1.514,30.214c-0.443,4.386-0.13,15.217-3.512,17.868"/>
	<path fill="none" stroke="#BF5C81" stroke-miterlimit="10" d="M173,96.75c-1.871-3.949-4.672-7.084-5.623-11.5
		c-0.982-4.563-0.078-9.426,0.123-13.988c0.471-10.739-3.555-27.519,3.601-36.854c7.715-10.066,25.123-8.82,35.409-4.544
		c17.436,7.249,25.824,27.727,29.602,44.915c4.26,19.386,3.936,40.68,1.751,60.471c-1.462,13.238-1.13,29.05-5.362,41.501"/>
	<path fill="none" stroke="#BF5C81" stroke-miterlimit="10" d="M152.5,40.25c5.82,1.447,10.125,2.041,13.863,6.962
		c3.456,4.55,6.477,9.896,9.042,14.942c4.087,8.041,3.675,16.358,6.596,24.096"/>
	<path fill="none" stroke="#BF5C81" stroke-miterlimit="10" d="M161.5,33.25c4.273-15.553,28.191-15.821,40.186-12.304
		c15.727,4.612,23.695,16.381,31.051,30.608C246.361,77.908,255.777,111.87,253,141.75"/>
	<path fill="none" stroke="#BF5C81" stroke-miterlimit="10" d="M106.5,67.75C97.484,76.222,98,87.253,98,98.775
		c0,12.361,0.125,24.478,3.585,36.197c3.128,10.595,10.141,20.288,16.204,29.218c2.133,3.142,4.069,6.26,6.085,9.589
		c3.645,6.021,5.56,11.562,8.125,17.971"/>
</g>
</svg>
