<?xml version="1.0" encoding="utf-8"?>
<!-- Generator: Adobe Illustrator 16.0.0, SVG Export Plug-In . SVG Version: 6.00 Build 0)  -->
<!DOCTYPE svg PUBLIC "-//W3C//DTD SVG 1.1//EN" "http://www.w3.org/Graphics/SVG/1.1/DTD/svg11.dtd">
<svg version="1.1" id="图层_1" xmlns="http://www.w3.org/2000/svg" xmlns:xlink="http://www.w3.org/1999/xlink" x="0px" y="0px"
	 width="444.5px" height="360.5px" viewBox="0 0 444.5 360.5" enable-background="new 0 0 444.5 360.5" xml:space="preserve">
<symbol  id="flower" viewBox="-36.892 -34.543 73.784 69.086">
	<g>
		<g>
			<g>
				<path fill="#007064" d="M13.496-0.25c0,0-4.675-1.416-5.205-2.938s-6.065-9.417-9.601-10.83c0,0,5.19,2.278,6.517,4.051
					C6.535-8.198,7.95-5.874,9.974-5.07C11.995-4.261,18.024-0.888,13.496-0.25z"/>
				<path fill="#007064" d="M14.301-1.945c0,0,3.896-3.372,5.871-2.273c1.975,1.098,3.719,2.518,3.327,4.188
					c-0.393,1.672-2.232,4.9-2.973,6.154C19.783,7.378,10.629,2.243,14.301-1.945z"/>
				<path fill="#619188" d="M18.561,2.755c0,0,1.45-1.559,3.437,0.199c1.986,1.76,2.141,4.477,4.474,4.853
					c2.332,0.38,9.383,4.814,10.42,6.54c0,0-1.314-1.11-3.171-1.472c-1.854-0.363-4.155-0.557-5.332-1.406
					c-1.178-0.85-3.182-2.135-4.531-2.292C22.508,9.019,16.494,5.171,18.561,2.755z"/>
				<path fill="#619188" d="M12.638-0.54c0,0-1.215-2.83-0.657-4.056c0.557-1.225,2.41-3.792,1.927-5.604
					c-0.481-1.813,0.229-6.184,0.229-6.184s-0.23,0.32,0.298,1.843c0.531,1.521,2.522,2.145,3.048,4.8
					c0.525,2.658,4.482,9.581,0.804,11.974C14.608,4.626,13.489,1.212,12.638-0.54z"/>
				<path fill="#1E564F" d="M16.158,0.422c0,0-0.663-1.382-0.801-2.238c-0.14-0.853,0.951-2.783,0.785-3.811
					c-0.166-1.024-0.807-3.902-0.75-4.61c0.061-0.712-0.871-2.142-0.982-2.822c-0.11-0.685-0.044,0.271-0.044,0.271
					s0.392,1.34,0.333,2.049c-0.06,0.712,0.851,3.634,0.631,4.986c-0.22,1.35-0.96,4.889,0.043,6.217
					C16.378,1.789,15.981,1.502,16.158,0.422z"/>
				<g>
					<g>
						<path fill="#619188" d="M8.193,8.749c0,0-3.72-1.338-5.068-3.951C1.774,2.184,1.163,1.36,1.553-0.552
							c0.391-1.909,2.396-4.243,2.04-5.458c-0.358-1.216-3.67-2.779-5.374-4.44c-1.702-1.666-3.347-2.766-2.868-4.913
							c0.478-2.147-0.574-4.109-1.349-4.939c-0.77-0.828-0.28-1.129-0.38-2.74c-0.102-1.607-2.082-4.564-4.443-5.771
							c-2.361-1.207-4.928-3.464-5.485-5.729c0,0,0.753,1.311,0.866,4.922c0.109,3.612-0.023,11.785-0.542,15.053
							c-0.518,3.271-0.479,6.639,3.333,9.902c3.81,3.261,9.906,9.813,12.381,10.145c2.474,0.327,3.626,1.731,5.441,2.52
							S7.922,9.62,7.922,9.62L8.193,8.749z"/>
						<path fill="#1E564F" d="M-7.627-2.474c0,0-3.155-5.533-3.691-7.448c-0.537-1.913-2.191-4.544-2.191-4.544
							s0.062,0.211,0.581,2.474c0.519,2.263-0.758,2.618-1.45,1.781s-1.579,0.099,2.173,2.028c3.751,1.929,0.914,2.036,0.354,2.077
							c-0.561,0.045,0.314,0.716,1.783,1.451C-8.605-3.919-7.627-2.474-7.627-2.474z"/>
						<path fill="#1E564F" d="M-3.924-3.167c0,0-3.593-3.006-4.162-4.223c-0.57-1.215-2.957-6.05-3.011-7.064
							c-0.056-1.017-0.89-3.992-0.929-5.355c0,0,0.792,2.414,1.089,3.476c0.298,1.063,0.272,3.021,0.8,3.675
							c0.528,0.654,0.709,0.489,0.901-1.285c0.192-1.771,1.589-5.372,2.38-5.822c0,0-1.755,2.322-1.703,4.145
							c0.051,1.82-0.43,3.789-0.553,4.166c0,0,0.591,2.929,1.422,3.844c0.829,0.914,1.352-0.493,1.679-2.188
							c0.326-1.697,0.861-2.648,0.861-2.648s-0.124,0.377-0.269,1.91c-0.142,1.526-0.912,3.69-1.034,4.067
							C-6.578-6.091-3.784-3.894-2.359-3.72L-3.924-3.167z"/>
					</g>
					<path fill="#1E564F" d="M-14.389-28.979c0,0,1.075,0.774,1.366,2.953c0.289,2.181-0.134,6.82,0.564,9.315
						c0.701,2.495,4.089,11.128,6.332,12.22c2.245,1.095,2.867,1.78,2.867,1.78l-0.516,0.468c0,0-2.582-1.538-3.533-2.238
						c-0.95-0.702-5.672-10.252-5.877-12.133C-13.389-18.496-12.935-26.48-14.389-28.979z"/>
				</g>
				<path fill="#619188" d="M-12.135,13.136c0,0-6.551-1.02-9.291-0.16c-2.741,0.861-6.413,4.998-7.779,5.955
					c-1.369,0.959-6.313,3.834-7.687,3.738c0,0,2.006,0.094,4.751,0.289c2.746,0.197,3.503,3.464,9.315,4.596
					c5.813,1.129,15.176-4.729,16.947-9.065C-4.106,14.147-9.072,13.437-12.135,13.136z"/>
				<path fill="#1E564F" d="M-9.349,17.326c0,0-2.184,0.323-3.352,0.563c-1.169,0.24-9.897,3.1-11.85,2.72
					c0,0,5.379-1.199,7.091-1.991c0,0-4.385-2.473-5.092-3.483c0,0,4.231,2.786,5.637,3.091c0,0,1.948-0.398,2.494-0.48
					c0.546-0.081-2.514-3.108-3.145-4.197c0,0,2.829,3.418,3.455,3.57c0.625,0.152,1.25,0.149,2.028-0.01
					c0.782-0.162,2.574-0.406,2.574-0.406L-9.349,17.326z"/>
				<path fill="#1E564F" d="M-11.052,19.52c0,0-1.56,0.163-2.179,1.104c-0.62,0.938-2.104,0.559-3.665,0.878
					c-1.558,0.32-2.724,1.188-3.663,0.88c0,0,3.9-0.646,5.227-0.576c1.327,0.072,0.473,1.093-1.084,1.881
					c-1.555,0.789,1.484-0.087,3.269-1.735c1.786-1.648,1.796-0.09,1.255,1.088c-0.539,1.172,1.947-0.869,2.562-2.749
					C-8.717,18.413-9.882,19.592-11.052,19.52z"/>
				<path fill="#1E564F" d="M-9.216,19.03c0,0-2.641-0.426-5.202,0.688c-2.557,1.115-9,2.615-11.346,2.482
					c-2.346-0.138-7.625-0.252-8.503,0.046c0,0,0.366-0.223,1.758-0.45c1.392-0.229,4.471,0.049,6.082-0.254
					c1.611-0.302,5.715-0.47,7.325-1.065c1.609-0.595,9.15-2.32,9.81-2.254L-9.216,19.03z"/>
				<g>
					<g>
						<path fill="#A94225" d="M23.075,22.45c-0.407-0.131-0.657-0.234-0.657-0.234s0.205-2.647,0.258-2.446
							c-0.997-0.774-1.45-1.517-1.563-2.236c-0.116-0.721,0.108-1.422,0.457-2.114c0.351-0.695,0.83-1.383,1.226-2.075
							c0.396-0.694,0.712-1.395,0.738-2.114c0.436,0.845,0.834,1.633,1.166,2.301c0.33,0.668,0.591,1.222,0.75,1.604
							c0.354,0.861-0.008,2.295-0.576,3.711C24.307,20.261,23.537,21.661,23.075,22.45z"/>
						<path fill="#B74933" d="M22.583,22.063c0.205-0.073,0.456-0.552,0.675-0.964c0.134-0.256,0.181-0.551,0.127-0.78
							c-0.081-0.339-0.812-1.334-1.004-2.06c0.011-0.199-0.009-0.402-0.082-0.605c-0.466-1.267-0.198-2.459-0.652-2.684
							c-0.091-0.061-0.19-0.113-0.305-0.158c-0.136-0.11-1.302-0.397-1.409-0.506c-1.368-0.469-2.956-0.988-3.522-1.604
							c-0.288-0.31-0.696-0.537-1.095-0.689c-0.554-0.213-1.112-0.295-1.327-0.182c-0.223,0.119-0.391,0.18-0.512,0.162
							c-0.019-0.43-0.259-0.994,0.367-1.419c0.806-0.549,1.233-0.307,1.737-0.882c0.51-0.582,1.113-1.104,1.719-1.584
							c0.541-0.433,0.973-0.913,1.23-1.352c0.604,0.749,1.21,1.467,1.727,2.136c0.46,0.594,0.739,1.226,1.138,1.521
							c1.415,1.057,2.471,1.068,2.838,4.803c-0.054,0.152,0.078,0.582,0.24,1.08c0.266,0.825,0.609,1.789,0.856,2.064
							c-0.069,0.142,0.068,0.441-0.001,1.168C25.113,21.798,23.268,21.9,22.583,22.063z"/>
						<path fill="#C55040" d="M22.593,22.151c0.817-0.021,1.566-0.871,2.002-1.692c0.272-0.511,0.371-1.052,0.244-1.427
							c-0.159-0.479-1.669-2.078-2.086-3.126c0.013-0.297-0.039-0.601-0.196-0.905c-0.992-1.944-0.506-3.809-1.442-4.354
							c-0.139-0.091-0.3-0.163-0.488-0.222c-0.089-0.072-2.259-0.502-2.333-0.572c-2.318-0.521-5.246-1.137-6.212-1.979
							c-0.523-0.456-1.296-0.755-2.066-0.911C8.941,6.749,7.842,6.82,7.386,7.211C6.952,7.585,6.582,7.771,6.32,7.837
							C6.248,7.147,5.717,6.192,6.912,5.515c1.527-0.869,2.233-0.188,3.177-1.069c0.575-0.54,1.349-0.846,2.214-1.099
							c0.633-0.186,1.231-0.43,1.723-0.586c0.77,0.656,1.568,1.309,2.286,1.969c0.574,0.524,1.054,1.064,1.53,1.443
							c2.218,1.763,4.858,0.238,6.019,6.502c-0.035,0.103,0.278,0.766,0.709,1.553c0.665,1.209,1.602,2.676,2.302,2.796
							c-0.049,0.099,0.313,0.507,0.276,1.776C27.037,22.646,23.713,22.254,22.593,22.151z"/>
						<path fill="#D2554D" d="M22.63,22.24c1.427,0.04,2.675-1.187,3.331-2.42c0.407-0.767,0.558-1.555,0.359-2.07
							c-0.239-0.62-2.528-2.823-3.17-4.192c0.014-0.393-0.069-0.795-0.307-1.206c-1.526-2.617-0.819-5.156-2.234-6.021
							c-0.188-0.119-0.411-0.213-0.67-0.283c-0.045-0.035-3.221-0.605-3.257-0.642c-3.269-0.57-7.541-1.278-8.901-2.353
							C7.02,2.454,5.889,2.078,4.745,1.922C3.147,1.705,1.512,1.921,0.809,2.597c-0.647,0.622-1.217,0.938-1.62,1.09
							C-0.935,2.74-1.754,1.39,0.006,0.462C2.256-0.726,3.2,0.341,4.622-0.8C5.258-1.31,6.201-1.441,7.33-1.41
							C8.054-1.39,8.821-1.355,9.546-1.232c0.938,0.561,1.919,1.163,2.846,1.805c0.68,0.467,1.308,0.961,1.918,1.362
							c3.273,2.16,7.249-0.588,9.202,8.203c-0.017,0.05,0.476,0.952,1.178,2.021c1.059,1.604,2.594,3.565,3.746,3.534
							c-0.023,0.048,0.553,0.567,0.554,2.38C28.974,23.497,24.184,22.612,22.63,22.24z"/>
						<path fill="#DF5B5A" d="M22.654,22.351c3.3,0.155,5.848-4.146,5.136-5.865c-0.316-0.761-3.386-3.564-4.255-5.257
							c0.018-0.492-0.097-0.992-0.417-1.507c-2.311-3.709-0.85-7.312-3.877-8.037l-4.18-0.709c-4.22-0.622-9.832-1.422-11.592-2.727
							C1.073-3.529-4.148-3.649-5.78-1.999c-0.858,0.867-1.63,1.316-2.176,1.553c-0.173-1.205-1.283-2.947,1.046-4.13
							c2.975-1.507,4.126-0.101,6.058-1.453C1.08-7.383,6.433-4.798,10.771-2.286c4.34,2.512,9.636-1.416,12.384,9.902
							c0,0,4.153,7.074,6.836,6.762c0,0,0.799,0.63,0.831,2.986C30.916,24.368,24.645,22.987,22.654,22.351z"/>
					</g>
				</g>
				<g>
					<g>
						<path fill="#D86352" d="M21.053,22.76c-0.161-2.077-1.357-4.444-3.018-6.609c0.675-0.928,1.064-2.491,1.274-4.277
							s0.239-3.795,0.194-5.613c0.934,1.252,2.029,2.914,2.302,4.147c0.174,0.796,0.194,2.679,0.246,4.882
							c0.048,2.205,0.127,4.729,0.422,6.811c-0.409,1.313-0.812,2.416-1.094,3.148C21.257,24.403,21.116,23.563,21.053,22.76z"/>
						<path fill="#CC5B47" d="M21.652,24.459c-0.118-0.836-0.247-1.686-0.309-2.511c-0.089-1.206-0.421-2.482-0.866-3.748
							c-0.412-1.177-0.888-2.322-1.473-3.301c0.078-0.194,0.149-0.386,0.211-0.574c0.312-0.954,0.36-2.271,0.282-3.66
							c-0.015-0.303-0.042-0.605-0.069-0.909c0.081-1.618,0.06-3.263,0.008-4.64c0.939,0.842,1.706,2.098,2.161,3.317
							c0.101,0.271,0.184,0.531,0.241,0.784c0.21,0.893,0.335,2.497,0.608,4.323c0.019,0.215,0.036,0.434,0.049,0.658
							c0.105,1.545,0.126,3.262,0.156,4.905c0.014,0.724,0.029,1.435,0.055,2.107C22.332,22.513,21.947,23.645,21.652,24.459z"/>
						<path fill="#C1533C" d="M21.926,23.672c-0.117-0.829-0.231-1.687-0.292-2.538c-0.091-1.272-0.341-2.609-0.632-3.904
							c-0.305-1.34-0.613-2.605-1.031-3.579c0.044-0.229,0.08-0.441,0.107-0.631c0.136-0.967-0.073-2.271-0.39-3.562
							c-0.072-0.293-0.156-0.583-0.236-0.868c0.038-1.706-0.019-3.364-0.081-4.619C20.5,4.655,21.184,5.9,21.64,7.243
							c0.091,0.265,0.169,0.527,0.231,0.785c0.26,1.073,0.48,2.688,0.986,4.424c0.032,0.217,0.059,0.436,0.084,0.66
							c0.174,1.561,0.17,3.317,0.104,5.024c-0.026,0.746-0.065,1.483-0.104,2.189C22.601,21.616,22.233,22.772,21.926,23.672z"/>
						<path fill="#B44B31" d="M22.199,22.886c-0.116-0.819-0.215-1.686-0.272-2.563c-0.093-1.345-0.244-2.745-0.4-4.064
							c-0.178-1.512-0.336-2.889-0.587-3.858c0.008-0.267,0.012-0.497,0.003-0.687c-0.038-0.979-0.517-2.27-1.063-3.465
							c-0.131-0.283-0.269-0.559-0.401-0.822c-0.004-1.797-0.095-3.468-0.172-4.598c1.323,0.521,1.929,1.756,2.379,3.225
							c0.08,0.262,0.154,0.523,0.221,0.787c0.314,1.249,0.625,2.877,1.364,4.523c0.045,0.217,0.084,0.436,0.119,0.659
							c0.244,1.579,0.212,3.376,0.053,5.146c-0.068,0.77-0.159,1.533-0.264,2.271C22.871,20.718,22.517,21.9,22.199,22.886z"/>
						<path fill="#A94225" d="M19.503,6.259c-0.048-1.886-0.174-3.565-0.263-4.574c1.514,0.363,2.045,1.586,2.486,3.181
							c0.445,1.592,0.797,3.56,1.954,5.412c0.479,1.741,0.443,3.836,0.156,5.924c-0.288,2.089-0.83,4.175-1.363,5.897
							c-0.295-2.082-0.374-4.604-0.422-6.811c-0.052-2.203-0.072-4.086-0.246-4.882C21.533,9.173,20.437,7.511,19.503,6.259z"/>
					</g>
					<path fill="#A94225" d="M18.916,32.147c0.559-0.335,0.995-0.699,1.351-1.085C19.946,31.532,19.514,31.921,18.916,32.147z"/>
					<path fill="#A94225" d="M20.266,31.064c1.234-1.806,0.724-4.853,0.724-4.853s0.153-0.352,0.39-0.965
						C21.67,27.307,21.807,29.397,20.266,31.064z"/>
				</g>
				<g>
					<g>
						<path fill="#B52F30" d="M-12.556,18.577c-0.365-1.073-0.348-1.837-0.152-2.381c0.196-0.542,0.57-0.865,0.919-1.057
							C-10,16.877-9.087,20.24-9.087,20.24c0.721,3.341,3.455,4.644,5.578,5.15c1.476,0.354,2.655,0.322,2.655,0.322
							c0.101,0.441,0.3,0.863,0.54,1.271c-0.658,0.202-1.323,0.271-1.991,0.236c-0.664-0.037-1.328-0.179-1.981-0.402
							c-1.305-0.453-2.563-1.24-3.695-2.185C-10.243,22.749-11.989,20.247-12.556,18.577z"/>
						<path fill="#C3433E" d="M-13.088,18.628c-0.338-1.127-0.281-2.018,0.022-2.719c0.077-0.181,0.169-0.344,0.273-0.488
							c0.114-0.16,0.135-0.282,0.113-0.418c0.073-0.04,0.149-0.075,0.221-0.104c0.301,0.137,0.581,0.334,0.843,0.572
							c0.253,0.404,0.476,0.762,0.62,1.012c0.153,0.264,0.227,0.418,0.268,0.502c0.258,0.366,0.481,0.748,0.673,1.103
							c0.076,0.584,0.068,1.062,0.049,1.292c0.058,0.418,0.157,0.845,0.311,1.289c0.879,2.575,2.549,4.005,4.261,4.755
							c0.475,0.208,0.954,0.362,1.425,0.471c0.432,0.099,0.842,0.165,1.226,0.204c0.897,0.099,1.595,0.058,1.85-0.007
							c0.095,0.085,0.195,0.169,0.305,0.244c0.161,0.366,0.377,0.716,0.615,1.041c-0.657,0.237-1.03,0.538-1.518,0.733
							c-0.725-0.248-1.603-0.625-3.052-0.929c-1.477-0.309-3.13-1.546-4.544-2.899C-11.027,22.462-12.597,20.263-13.088,18.628z"/>
						<path fill="#D0574D" d="M-13.619,18.679c-0.31-1.182-0.222-2.2,0.197-3.06c0.091-0.188,0.193-0.36,0.313-0.523
							c0.074-0.104-0.062-0.187-0.284-0.341c0.089-0.039,0.179-0.072,0.266-0.099c0.379,0.058,0.732,0.212,1.058,0.434
							c0.275,0.505,0.511,0.895,0.606,1.061c0.103,0.176,0.065,0.127-0.015-0.052c0.317,0.302,0.596,0.653,0.842,1.009
							c-0.102,0.471-0.25,0.942-0.288,1.405c0.025,0.437,0.109,0.916,0.273,1.458c0.948,3.149,2.643,4.937,4.494,5.848
							c0.538,0.264,1.09,0.456,1.648,0.577c0.435,0.097,0.861,0.154,1.271,0.189c0.918,0.073,1.713,0.005,2.224-0.118
							c0.156,0.035,0.32,0.063,0.488,0.085c0.22,0.433,0.502,0.84,0.815,1.213c-0.661,0.275-0.737,0.803-1.049,1.236
							c-0.783-0.463-1.858-1.126-4.116-1.455c-1.631-0.239-3.715-1.826-5.394-3.617C-11.858,22.231-13.201,20.276-13.619,18.679z"/>
						<path fill="#DD695C" d="M-14.15,18.731c-0.279-1.238-0.167-2.392,0.373-3.402c0.102-0.191,0.218-0.379,0.352-0.556
							c0.037-0.053-0.254-0.096-0.68-0.267c0.105-0.039,0.208-0.069,0.311-0.095c0.458-0.023,0.881,0.091,1.273,0.294
							c0.3,0.605,0.544,1.028,0.592,1.112c0.052,0.085-0.094-0.167-0.296-0.608c0.375,0.241,0.709,0.561,1.012,0.913
							c-0.282,0.36-0.572,0.83-0.627,1.525c-0.005,0.45,0.063,0.983,0.237,1.624c1.013,3.728,2.732,5.873,4.726,6.939
							c0.6,0.324,1.228,0.545,1.872,0.684c0.438,0.094,0.878,0.148,1.315,0.172c0.938,0.055,1.834-0.04,2.598-0.227
							c0.221-0.018,0.444-0.043,0.672-0.073c0.274,0.497,0.627,0.969,1.013,1.388c-0.659,0.31-0.445,1.067-0.578,1.734
							c-0.841-0.678-2.116-1.662-5.186-1.98c-1.782-0.187-4.333-2.073-6.244-4.332C-12.72,22.032-13.801,20.291-14.15,18.731z"/>
						<path fill="#EA7D6D" d="M0.788,30.78c-0.9-0.89-2.373-2.229-6.252-2.504c-1.939-0.14-5.008-2.285-7.093-5.055
							c-1.042-1.382-1.839-2.919-2.124-4.439c-0.287-1.521-0.063-3.021,0.938-4.334c0,0-0.448,0-1.077-0.188
							c0.674-0.217,1.29-0.164,1.846,0.065c0.323,0.704,0.577,1.161,0.577,1.161s-0.254-0.457-0.577-1.161
							c0.43,0.176,0.824,0.466,1.184,0.813c-0.698,0.382-1.319,1.238-0.767,3.438c1.077,4.301,2.824,6.805,4.957,8.028
							c1.066,0.614,2.229,0.908,3.454,0.95c1.227,0.04,2.515-0.171,3.83-0.572c0.331,0.565,0.752,1.098,1.211,1.563
							C0.234,28.895,0.742,29.882,0.788,30.78z"/>
					</g>
				</g>
				<g>
					<g>
						<path fill="#7A192B" d="M2.951,30.971c-0.852-0.841-1.243-1.929-1.416-2.874c0.943,0.658,1.976,1.246,2.939,1.601
							c1.564,0.569,5.127-0.683,5.127-0.683c1.949,0.119,3.399-0.416,4.467-1.244C11.577,34.12,4.557,32.563,2.951,30.971z"/>
						<path fill="#933038" d="M0.959,27.617c0.828,0.614,1.758,1.19,2.654,1.588c0.199,0.089,0.425,0.149,0.669,0.194
							c1.341,0.325,3.445-0.107,3.658,0.103c1.374,0.46,3.933,0.69,5.224-1.192c0.626-0.401,1.038-0.972,1.311-1.459
							c0.138,0.117,0.242,0.209,0.299,0.271c-1.93,5.339-7.682,4.885-9.293,4.196c-0.003,0-0.003,0-0.004-0.001
							c-0.462-0.457-2.16,0.389-4.018-1.818C1.21,29.028,0.831,27.899,0.959,27.617z"/>
						<path fill="#AE4847" d="M0.383,27.138c0.711,0.574,1.54,1.14,2.37,1.576c0.187,0.102,0.394,0.185,0.613,0.252
							c0.952,0.533,2.484,0.605,2.91,1.027c1.45,0.836,5.498,1.508,7.188-1.863c0.92-0.659,1.44-1.626,1.701-2.408
							c0.18,0.303,0.291,0.556,0.313,0.747c-1.367,4.329-5.855,4.979-7.47,5.193c-0.003-0.001-0.007,0-0.009-0.001
							c-0.308-0.307-3.333,2.123-6.819-1.575C0.77,29.425,0.075,27.442,0.383,27.138z"/>
						<path fill="#CC6259" d="M-0.195,26.659c0.598,0.531,1.326,1.084,2.087,1.564c0.177,0.109,0.364,0.214,0.559,0.309
							c0.563,0.737,1.524,1.317,2.163,1.951c1.528,1.213,7.062,2.327,9.153-2.535c1.212-0.913,1.84-2.276,2.091-3.354
							c0.22,0.486,0.339,0.902,0.326,1.226c-0.806,3.318-4.026,5.071-5.647,6.188c-0.002-0.003-0.008-0.003-0.011-0.004
							c-0.153-0.151-4.502,3.857-9.621-1.326C0.332,29.822-0.678,26.983-0.195,26.659z"/>
						<path fill="#EA7D6D" d="M13.052,32.351c0,0-5.675,5.592-12.423-1.084c-0.736-1.048-2.062-4.74-1.4-5.088
							c0.596,0.606,1.411,1.294,2.305,1.918c0.173,0.945,0.564,2.033,1.416,2.874c1.606,1.592,8.626,3.149,11.117-3.2
							c1.508-1.172,2.242-2.933,2.481-4.305c0.26,0.672,0.388,1.248,0.341,1.703c-0.243,2.311-2.199,5.165-3.823,7.186
							C13.061,32.354,13.057,32.351,13.052,32.351z"/>
					</g>
				</g>
				<path fill="#DF5B5A" d="M3.332,12.563c-0.85-0.949-1.591-1.919-2.195-2.781c2.885,0.326,5.179,0.371,6.575-0.308
					c2.777,4.549,7.495,10.521,8.837,13.992c-0.408,2.341-1.794,6.204-6.497,5.916l-6.555,1.23c0,0-1.381-0.821-2.602-2.066
					c1.392-0.727,4.122-0.594,7.291-1.082"/>
				<path fill="#FFFBD0" d="M8.187,27.464c1.077-0.166,2.203-0.404,3.343-0.772c6.103-1.972,0.403-7.906-4.235-10.716
					c-1.477-0.895-2.818-2.135-3.962-3.413"/>
				<g>
					<g>
						<path fill="#DF5B5A" d="M4.544,15.156c2.981,2.777,4.551,2.769,6.485,5.549c1.445,2.075,2.206,3.96,1.995,5.292
							c-0.398,0.264-0.957,0.574-1.563,0.771c-1.14,0.366-2.199,0.53-3.276,0.696c0.823-0.496,1.321-1.075,1.563-1.729
							c0.244-0.656,0.23-1.386,0.034-2.183l-4.338-3.737l-4.339-3.737c-2.008-0.632-3.988-1.077-5.343-1.351
							c0.705-0.565,1.5-1.022,2.285-1.381c0.783-0.354,1.559-0.605,2.219-0.764c1.051-0.249,0.981-1.729,1.778-1.697
							C2.062,11.595,2.388,13.151,4.544,15.156z"/>
						<path fill="#D2554D" d="M9.002,26.595c0.632-0.469,0.996-1.012,1.159-1.616c0.139-0.517,0.126-1.075-0.006-1.681
							c-0.018-0.09-0.039-0.178-0.063-0.266c-0.087-0.217-3.427-3.213-3.599-3.457c-0.002-0.004-0.052-0.049-0.055-0.053
							c-0.21-0.305-3.662-3.273-3.878-3.429c-1.69-0.604-3.372-1.061-4.625-1.446c0.415-0.513,0.92-0.926,1.343-1.351
							c0.42-0.425,0.83-0.813,1.229-1.088c0.601-0.418,0.554-1.632,1.063-1.823c0.034-0.003,0.071-0.005,0.113-0.001
							c0.298,0.852,1.345,2.795,3.33,4.523c2.758,2.396,4.477,2.854,6.226,5.401c0.902,1.314,1.499,2.56,1.675,3.621
							c0.078,0.476,0.068,0.916-0.035,1.312c-0.315,0.229-0.704,0.432-1.18,0.606C10.791,26.188,9.885,26.419,9.002,26.595z"/>
						<path fill="#C55040" d="M10.385,26.354c0.441-0.44,0.674-0.946,0.756-1.506c0.065-0.457,0.024-0.953-0.113-1.483
							c-0.019-0.075-0.039-0.15-0.061-0.228c-0.176-0.428-2.578-2.737-2.918-3.229C8.041,19.9,8.005,19.866,8,19.854
							c-0.424-0.604-2.988-2.81-3.42-3.115c-1.372-0.578-2.755-1.043-3.905-1.543c0.124-0.459,0.342-0.879,0.399-1.321
							c0.071-0.552,0.105-1.026,0.237-1.413c0.211-0.611,0.123-1.678,0.458-1.951c0.037-0.003,0.073-0.003,0.116,0.002
							c0.58,0.993,2.346,3.325,4.161,4.776c2.535,2.021,4.402,2.946,5.965,5.257c0.798,1.184,1.315,2.316,1.422,3.303
							c0.05,0.457,0.008,0.884-0.132,1.269c-0.233,0.191-0.521,0.367-0.87,0.521C11.761,25.939,11.076,26.169,10.385,26.354z"/>
						<path fill="#B74933" d="M11.724,26.156c0.251-0.411,0.355-0.878,0.353-1.393c-0.005-0.399-0.076-0.83-0.219-1.285
							c-0.02-0.063-0.04-0.124-0.063-0.188c-0.26-0.644-1.719-2.271-2.236-3.003c-0.01-0.012-0.034-0.038-0.043-0.052
							c-0.642-0.907-2.31-2.35-2.959-2.813c-1.052-0.549-2.141-1.021-3.185-1.636c-0.168-0.403-0.304-0.843-0.544-1.292
							c-0.367-0.686-0.632-1.243-0.754-1.738c-0.2-0.811-0.313-1.721-0.149-2.08c0.038,0,0.075,0.001,0.119,0.009
							c0.862,1.136,3.347,3.854,4.992,5.026c2.313,1.642,4.327,3.035,5.703,5.108c0.696,1.053,1.131,2.078,1.172,2.988
							c0.018,0.438-0.057,0.851-0.233,1.226c-0.151,0.156-0.337,0.3-0.559,0.435C12.687,25.735,12.221,25.964,11.724,26.156z"/>
						<path fill="#A94225" d="M11.03,20.705c-1.935-2.78-3.504-2.771-6.485-5.549c-2.156-2.005-2.483-3.563-2.5-4.271
							c0.039,0,0.078,0.002,0.12,0.013c1.145,1.276,4.351,4.383,5.826,5.276c2.089,1.266,4.252,3.123,5.44,4.963
							c0.593,0.922,0.942,1.838,0.92,2.672c-0.012,0.419-0.117,0.816-0.333,1.185c-0.215,0.367-0.541,0.705-0.993,1.004
							c0.105-0.668-0.032-1.471-0.377-2.367C12.304,22.731,11.752,21.743,11.03,20.705z"/>
					</g>
				</g>
				<g>
					<g>
						<g>
							<path fill="#CF002B" d="M-4.598,15.04c-1.013,0.918-1.769,2.086-1.925,3.525c-1.069-0.99-1.91-1.956-2.516-2.887
								s-0.978-1.824-1.11-2.675c-0.261-1.701,0.435-3.223,2.135-4.485c0.212,0.022,0.427,0.049,0.653,0.079
								c1.651,0.229,3.172,0.453,4.57,0.656C-4.39,9.729-5.004,10.76-5.137,11.88C-5.271,13.001-4.921,14.208-4.598,15.04z"/>
							<path fill="#CF002B" d="M-8.897,12.723c-0.139-1.528,0.481-2.899,2.072-3.978c0.195,0,0.396,0.005,0.604,0.018
								C-4.62,8.984-3.154,9.202-1.81,9.387c-1.049,0.569-1.323,1.586-1.212,2.664c-0.33,0.79-0.329,1.688-0.362,2.374
								c-0.797,0.613-1.496,1.38-1.904,2.318c-0.079,0.184-0.146,0.373-0.2,0.569c-0.819-0.532-1.523-1.028-2.091-1.495
								c-0.125-0.101-0.24-0.2-0.35-0.299C-8.464,14.612-8.814,13.641-8.897,12.723z"/>
							<path fill="#CF002B" d="M-7.643,12.442c-0.036-1.356,0.529-2.582,2.009-3.476c0.179-0.02,0.364-0.033,0.558-0.041
								c1.546,0.22,2.961,0.424,4.25,0.593c-0.498,0.667-0.435,1.667-0.075,2.699c-0.53,0.466-0.875,1.048-1.265,1.593
								c-0.752,0.46-1.481,1.054-2.009,1.8c-0.103,0.145-0.193,0.294-0.278,0.448c-0.76-0.247-1.44-0.448-2.011-0.604
								c-0.125-0.035-0.244-0.065-0.354-0.094C-7.284,14.479-7.616,13.427-7.643,12.442z"/>
							<path fill="#CF002B" d="M-6.39,12.161c0.049-1.178,0.577-2.261,1.946-2.968c0.161-0.038,0.331-0.075,0.511-0.104
								c1.493,0.214,2.854,0.409,4.088,0.561c0.054,0.764,0.456,1.75,1.061,2.741c-0.729,0.138-1.421,0.403-2.166,0.806
								c-0.707,0.31-1.458,0.729-2.115,1.282c-0.123,0.104-0.24,0.214-0.354,0.327c-0.7,0.036-1.358,0.132-1.932,0.283
								c-0.124,0.033-0.242,0.071-0.358,0.11C-6.103,14.344-6.435,13.214-6.39,12.161z"/>
							<path fill="#CF002B" d="M3.332,12.563c-0.928-0.191-1.966-0.238-3.066,0.021c-0.66,0.157-1.436,0.41-2.219,0.764
								c-0.785,0.357-1.58,0.814-2.285,1.381c-0.124,0.103-0.243,0.205-0.36,0.313c-0.323-0.834-0.673-2.041-0.539-3.162
								c0.133-1.12,0.747-2.15,2.346-2.626c1.441,0.21,2.748,0.395,3.928,0.526C1.742,10.644,2.483,11.612,3.332,12.563z"/>
						</g>
					</g>
					<g>
						<g>
							<path fill="#EA6869" d="M-4.598,15.04c-1.013,0.918-1.769,2.086-1.925,3.525c-1.069-0.99-1.91-1.956-2.516-2.887
								s-0.978-1.824-1.11-2.675c-0.261-1.701,0.435-3.223,2.135-4.485c0.212,0.022,0.427,0.049,0.653,0.079
								c1.651,0.229,3.172,0.453,4.57,0.656C-4.39,9.729-5.004,10.76-5.137,11.88C-5.271,13.001-4.921,14.208-4.598,15.04z"/>
							<path fill="#DD6058" d="M-8.897,12.723c-0.139-1.528,0.481-2.899,2.072-3.978c0.195,0,0.396,0.005,0.604,0.018
								C-4.62,8.984-3.154,9.202-1.81,9.387c-1.049,0.569-1.323,1.586-1.212,2.664c-0.33,0.79-0.329,1.688-0.362,2.374
								c-0.797,0.613-1.496,1.38-1.904,2.318c-0.079,0.184-0.146,0.373-0.2,0.569c-0.819-0.532-1.523-1.028-2.091-1.495
								c-0.125-0.101-0.24-0.2-0.35-0.299C-8.464,14.612-8.814,13.641-8.897,12.723z"/>
							<path fill="#CC5648" d="M-7.643,12.442c-0.036-1.356,0.529-2.582,2.009-3.476c0.179-0.02,0.364-0.033,0.558-0.041
								c1.546,0.22,2.961,0.424,4.25,0.593c-0.498,0.667-0.435,1.667-0.075,2.699c-0.53,0.466-0.875,1.048-1.265,1.593
								c-0.752,0.46-1.481,1.054-2.009,1.8c-0.103,0.145-0.193,0.294-0.278,0.448c-0.76-0.247-1.44-0.448-2.011-0.604
								c-0.125-0.035-0.244-0.065-0.354-0.094C-7.284,14.479-7.616,13.427-7.643,12.442z"/>
							<path fill="#BB4D36" d="M-6.39,12.161c0.049-1.178,0.577-2.261,1.946-2.968c0.161-0.038,0.331-0.075,0.511-0.104
								c1.493,0.214,2.854,0.409,4.088,0.561c0.054,0.764,0.456,1.75,1.061,2.741c-0.729,0.138-1.421,0.403-2.166,0.806
								c-0.707,0.31-1.458,0.729-2.115,1.282c-0.123,0.104-0.24,0.214-0.354,0.327c-0.7,0.036-1.358,0.132-1.932,0.283
								c-0.124,0.033-0.242,0.071-0.358,0.11C-6.103,14.344-6.435,13.214-6.39,12.161z"/>
							<path fill="#A94225" d="M3.332,12.563c-0.928-0.191-1.966-0.238-3.066,0.021c-0.66,0.157-1.436,0.41-2.219,0.764
								c-0.785,0.357-1.58,0.814-2.285,1.381c-0.124,0.103-0.243,0.205-0.36,0.313c-0.323-0.834-0.673-2.041-0.539-3.162
								c0.133-1.12,0.747-2.15,2.346-2.626c1.441,0.21,2.748,0.395,3.928,0.526C1.742,10.644,2.483,11.612,3.332,12.563z"/>
						</g>
					</g>
				</g>
				<path fill="#F19975" d="M3.027,16.742c-0.631-0.24-1.276-0.462-1.921-0.664"/>
				<path fill="#F19975" d="M9.783,23.554c-0.242-0.989-0.756-2.078-1.42-3.26c-0.825-1.465-2.96-2.642-5.336-3.552"/>
				<path fill="#9A0000" d="M3.449,21.663c1.224,0.604,3.008,2.451,4.02,3.565c-1.451,0.53-3.082,0.572-3.851,0.162
					c-7.335-3.225-4.394-7.438-2.512-9.313c0.645,0.202,1.29,0.424,1.921,0.664C1.819,18.139,2.035,20.966,3.449,21.663z"/>
				<g>
					<g>
						<path fill="#A94225" d="M12.695,3.219c0.92-0.759,1.743-1.566,2.408-2.286c1.527,0.225,2.877,0.427,3.79,0.619
							c0.139,0.029,0.262,0.062,0.39,0.092c0.085,0.938,0.2,2.464,0.254,4.194c0.025,0.866,0.038,1.783,0.02,2.706
							c-0.018,0.922-0.063,1.854-0.147,2.734c-1.31-0.691-2.371-1.414-3.231-2.141c-0.858-0.726-1.514-1.454-2.013-2.163
							C13.165,5.565,12.797,4.243,12.695,3.219z"/>
						<path fill="#B34630" d="M11.358,3.776c0.339-0.14,0.646-0.301,0.915-0.48c0.421-0.281,0.83-0.582,1.217-0.896
							c0.39-0.322,0.756-0.652,1.095-0.981c1.169,0.402,2.244,0.876,3.142,1.305c0.123,0.063,0.242,0.111,0.361,0.169
							c0.313,1.058,0.806,2.575,1.501,4.222c-0.006,0.901-0.033,1.827-0.1,2.726c-0.067,0.899-0.173,1.771-0.328,2.563
							c-1.105-0.747-2.087-1.495-2.945-2.225c-0.084-0.068-0.165-0.141-0.246-0.21c-0.875-0.745-1.595-1.48-2.205-2.146
							C12.449,6.382,11.707,4.904,11.358,3.776z"/>
						<path fill="#BE4839" d="M10.062,4.294c0.446-0.084,0.831-0.211,1.15-0.376c0.524-0.271,1.036-0.587,1.521-0.937
							c0.486-0.353,0.949-0.734,1.378-1.121c0.81,0.579,1.612,1.298,2.496,1.989c0.107,0.088,0.216,0.164,0.328,0.245
							c0.542,1.176,1.412,2.69,2.749,4.249c-0.035,0.937-0.103,1.869-0.22,2.745c-0.115,0.876-0.28,1.69-0.509,2.39
							c-1.017-0.86-1.987-1.708-2.894-2.504c-0.085-0.074-0.172-0.147-0.256-0.224c-0.886-0.771-1.679-1.505-2.396-2.135
							C11.758,7.165,10.662,5.522,10.062,4.294z"/>
						<path fill="#C84A43" d="M8.549,5.028c0.549-0.027,1.017-0.113,1.383-0.266c0.627-0.262,1.241-0.596,1.823-0.979
							c0.587-0.385,1.144-0.816,1.661-1.261c0.453,0.753,0.998,1.703,1.849,2.677c0.096,0.107,0.195,0.213,0.299,0.322
							c0.769,1.293,2.019,2.801,3.996,4.274c-0.065,0.969-0.172,1.912-0.339,2.766c-0.164,0.851-0.39,1.611-0.689,2.216
							c-0.927-0.978-1.889-1.921-2.843-2.779c-0.088-0.081-0.178-0.161-0.268-0.24c-0.896-0.797-1.767-1.522-2.586-2.124
							C10.84,8.177,9.398,6.357,8.549,5.028z"/>
						<path fill="#D14C4C" d="M19.365,11.323c-0.095,1.003-0.242,1.957-0.457,2.785c-0.217,0.828-0.5,1.529-0.872,2.041
							c-0.838-1.091-1.792-2.132-2.791-3.058c-1-0.922-2.042-1.733-3.057-2.365C9.849,9.272,8.06,7.27,6.965,5.837
							c0.654,0.027,1.201-0.02,1.615-0.16c0.731-0.246,1.446-0.603,2.127-1.018c0.685-0.419,1.335-0.896,1.944-1.4
							c0.104,1.027,0.471,2.351,1.47,3.762C15.12,8.433,16.747,9.935,19.365,11.323z"/>
					</g>
				</g>
				<g>
					<g>
						<g>
							<path fill="#B52F30" d="M6.612,2.909C5.596,2.344,3.879,1.78,2.064,1.231c-1.816-0.553-3.732-1.091-5.143-1.61
								c-1.528-0.563-2.174-1.287-2.45-1.83c0.929-0.712,2.605-1.021,4.338-0.94c1.73,0.08,3.516,0.55,4.66,1.398
								c1.243,0.922,4.412,1.591,7.653,2.123C10.752,2.026,8.157,3.772,6.612,2.909z"/>
							<path fill="#B52F30" d="M-7.238-1.44c0.378-0.231,0.961-0.551,1.516-0.753c0.619-0.191,2.433-0.693,3.214-0.675
								c0.076-0.02,0.152-0.029,0.233-0.047c0.525,0.157,1.147,0.403,1.978,0.629C0.896-1.96,2.172-1.513,3.224-0.973
								c0.7,0.358,1.53,0.67,2.3,0.987c1.069,0.441,2.558,0.218,3.563-0.01c0.988,0.188,2.017,0.359,3.021,0.52
								C11.443,2.183,8.92,3.963,7.103,3.603C6.87,3.554,6.582,3.502,6.259,3.421C6.135,3.364,5.69,3.276,5.551,3.219
								C4.394,2.865,2.937,2.429,1.405,1.96c-1.924-0.589-3.964-1.19-5.604-1.799c-0.026-0.012-0.055-0.021-0.08-0.031
								C-5.592-0.348-6.909-0.989-7.238-1.44z"/>
							<path fill="#B52F30" d="M-8.948-0.674c0.429-0.21,1.174-0.646,1.799-0.899c0.415-0.129,3.03-1.02,3.55-1.005
								c0.074-0.038,0.157-0.07,0.238-0.101C-2.92-2.394-2.289-1.984-1.226-1.65C0.077-1.241,1.63-0.747,2.979-0.195
								c1.019,0.414,2.083,0.787,2.908,1.175c1.23,0.577,3.084-0.147,3.88-0.854c1.105,0.199,2.244,0.38,3.324,0.549
								c-0.957,1.663-3.438,3.541-5.495,3.619C7.3,4.304,6.929,4.289,6.494,4.226C6.412,4.19,5.7,4.086,5.607,4.05
								C4.258,3.731,2.556,3.245,0.748,2.688c-2.069-0.637-4.27-1.334-6.157-2.022c-0.021-0.01-0.046-0.018-0.072-0.024
								C-6.582,0.261-8.565-0.313-8.948-0.674z"/>
							<path fill="#B52F30" d="M-10.657,0.095c0.478-0.19,1.386-0.744,2.083-1.047C-8.366-1.016-4.949-2.296-4.69-2.29
								c0.077-0.056,0.162-0.104,0.246-0.155c0.359,0.416,0.997,0.983,2.293,1.431c1.41,0.485,3.241,1.025,4.886,1.596
								c1.337,0.465,2.636,0.907,3.514,1.363c1.389,0.718,3.614-0.519,4.197-1.694c1.225,0.21,2.47,0.399,3.63,0.575
								c-1.251,1.668-3.681,3.679-5.988,4.16C7.734,5.06,7.275,5.075,6.729,5.03c-0.042-0.02-1.02-0.131-1.066-0.15
								c-1.54-0.285-3.49-0.817-5.574-1.463C-2.123,2.729-4.48,1.931-6.619,1.171c-0.019-0.008-0.04-0.015-0.063-0.02
								C-7.571,0.868-10.221,0.362-10.657,0.095z"/>
							<path fill="#B52F30" d="M8.581,5.677C8.167,5.818,7.62,5.865,6.966,5.837L5.718,5.71C3.987,5.462,1.791,4.878-0.569,4.144
								c-2.357-0.732-4.879-1.616-7.26-2.469c-0.521-0.184-4.034-0.631-4.537-0.813c0.526-0.17,1.598-0.842,2.366-1.195l4.22-1.666
								c0.074-0.076,0.163-0.143,0.251-0.21c0.276,0.543,0.922,1.267,2.45,1.83c2.821,1.04,7.66,2.157,9.69,3.288
								c1.545,0.861,4.14-0.883,4.511-2.537c1.345,0.221,2.7,0.422,3.938,0.604C13.515,2.647,11.153,4.805,8.581,5.677z"/>
						</g>
					</g>
					<g>
						<g>
							<path fill="#B52F30" d="M6.612,2.909C5.596,2.344,3.879,1.78,2.064,1.231c-1.816-0.553-3.732-1.091-5.143-1.61
								c-1.528-0.563-2.174-1.287-2.45-1.83c0.929-0.712,2.605-1.021,4.338-0.94c1.73,0.08,3.516,0.55,4.66,1.398
								c1.243,0.922,4.412,1.591,7.653,2.123C10.752,2.026,8.157,3.772,6.612,2.909z"/>
							<path fill="#C03C39" d="M-7.238-1.44c0.378-0.231,0.961-0.551,1.516-0.753c0.619-0.191,2.433-0.693,3.214-0.675
								c0.076-0.02,0.152-0.029,0.233-0.047c0.525,0.157,1.147,0.403,1.978,0.629C0.896-1.96,2.172-1.513,3.224-0.973
								c0.7,0.358,1.53,0.67,2.3,0.987c1.069,0.441,2.558,0.218,3.563-0.01c0.988,0.188,2.017,0.359,3.021,0.52
								C11.443,2.183,8.92,3.963,7.103,3.603C6.87,3.554,6.582,3.502,6.259,3.421C6.135,3.364,5.69,3.276,5.551,3.219
								C4.394,2.865,2.937,2.429,1.405,1.96c-1.924-0.589-3.964-1.19-5.604-1.799c-0.026-0.012-0.055-0.021-0.08-0.031
								C-5.592-0.348-6.909-0.989-7.238-1.44z"/>
							<path fill="#CB4842" d="M-8.948-0.674c0.429-0.21,1.174-0.646,1.799-0.899c0.415-0.129,3.03-1.02,3.55-1.005
								c0.074-0.038,0.157-0.07,0.238-0.101C-2.92-2.394-2.289-1.984-1.226-1.65C0.077-1.241,1.63-0.747,2.979-0.195
								c1.019,0.414,2.083,0.787,2.908,1.175c1.23,0.577,3.084-0.147,3.88-0.854c1.105,0.199,2.244,0.38,3.324,0.549
								c-0.957,1.663-3.438,3.541-5.495,3.619C7.3,4.304,6.929,4.289,6.494,4.226C6.412,4.19,5.7,4.086,5.607,4.05
								C4.258,3.731,2.556,3.245,0.748,2.688c-2.069-0.637-4.27-1.334-6.157-2.022c-0.021-0.01-0.046-0.018-0.072-0.024
								C-6.582,0.261-8.565-0.313-8.948-0.674z"/>
							<path fill="#D5554B" d="M-10.657,0.095c0.478-0.19,1.386-0.744,2.083-1.047C-8.366-1.016-4.949-2.296-4.69-2.29
								c0.077-0.056,0.162-0.104,0.246-0.155c0.359,0.416,0.997,0.983,2.293,1.431c1.41,0.485,3.241,1.025,4.886,1.596
								c1.337,0.465,2.636,0.907,3.514,1.363c1.389,0.718,3.614-0.519,4.197-1.694c1.225,0.21,2.47,0.399,3.63,0.575
								c-1.251,1.668-3.681,3.679-5.988,4.16C7.734,5.06,7.275,5.075,6.729,5.03c-0.042-0.02-1.02-0.131-1.066-0.15
								c-1.54-0.285-3.49-0.817-5.574-1.463C-2.123,2.729-4.48,1.931-6.619,1.171c-0.019-0.008-0.04-0.015-0.063-0.02
								C-7.571,0.868-10.221,0.362-10.657,0.095z"/>
							<path fill="#E06155" d="M8.581,5.677C8.167,5.818,7.62,5.865,6.966,5.837L5.718,5.71C3.987,5.462,1.791,4.878-0.569,4.144
								c-2.357-0.732-4.879-1.616-7.26-2.469c-0.521-0.184-4.034-0.631-4.537-0.813c0.526-0.17,1.598-0.842,2.366-1.195l4.22-1.666
								c0.074-0.076,0.163-0.143,0.251-0.21c0.276,0.543,0.922,1.267,2.45,1.83c2.821,1.04,7.66,2.157,9.69,3.288
								c1.545,0.861,4.14-0.883,4.511-2.537c1.345,0.221,2.7,0.422,3.938,0.604C13.515,2.647,11.153,4.805,8.581,5.677z"/>
						</g>
					</g>
				</g>
				<g>
					<path fill="#E1836E" d="M7.739,23.203c-0.046,0.528-1.241,1.761-1.713,1.73c-1.449,0.189-2.871-0.964-3.452-1.248
						c-1.01-0.499-1.473-4.163-0.234-5.479C3.677,17.918,7.903,21.284,7.739,23.203z"/>
				</g>
				<g>
					<g>
						<path fill="#D4012C" d="M-9.872,6.759c-1.229-0.402-2.205-0.313-2.941-0.063c1.274-0.805,2.218-1.438,2.995-2.183
							c0.776-0.743,1.386-1.598,1.99-2.84c0.947,0.34,1.919,0.684,2.89,1.021c0.975,0.336,1.952,0.668,2.91,0.981
							c1.921,0.625,3.778,1.183,5.419,1.571C2.699,7.023,0.094,7.634-2.695,7.683C-4.089,7.71-5.526,7.595-6.797,7.415
							C-8.064,7.235-9.161,6.99-9.872,6.759z"/>
						<path fill="#DA3C3D" d="M-13.178,7.422c0.507-0.606,1.026-1.149,1.65-1.581c0.059-0.039,0.111-0.078,0.168-0.118
							c0.424-0.261,0.854-0.493,1.287-0.7c0.182-0.09,0.369-0.166,0.547-0.26c0.69-0.364,1.406-0.906,2.192-1.624
							c0.704,0.19,1.433,0.372,2.16,0.524c0.428,0.093,0.856,0.177,1.275,0.246c1.227,0.199,2.372,0.267,3.226,0.161
							c0.725,0.219,1.43,0.421,2.104,0.597c0.962,0.525,2.031,1.093,3.04,1.639C3.603,7.807,1.076,8.259-1.736,8.208
							C-3.21,8.183-4.786,8.017-6.304,7.8c-0.688-0.098-1.351-0.21-1.969-0.324c-0.621-0.118-1.165-0.217-1.61-0.305
							C-11.382,6.875-12.44,7.071-13.178,7.422z"/>
						<path fill="#E25F53" d="M-13.543,8.147c0.33-0.786,0.781-1.491,1.512-1.974c0.065-0.045,0.125-0.085,0.188-0.129
							c0.458-0.23,0.964-0.416,1.518-0.521c0.222-0.042,0.451-0.063,0.685-0.098c0.749-0.115,1.724-0.403,2.803-0.821
							c0.81,0.161,1.654,0.305,2.49,0.399c0.505,0.061,1.006,0.103,1.491,0.117c1.481,0.05,2.793-0.136,3.539-0.659
							c0.761,0.213,1.493,0.402,2.176,0.553c0.736,0.689,1.729,1.509,2.692,2.349c-1.044,1.224-3.493,1.515-6.33,1.368
							c-1.555-0.079-3.266-0.292-5.036-0.546c-0.728-0.104-1.45-0.221-2.154-0.338c-0.736-0.121-1.38-0.207-1.925-0.268
							C-11.66,7.386-12.803,7.696-13.543,8.147z"/>
						<path fill="#EA7D6D" d="M-13.909,8.876c0.156-0.967,0.536-1.832,1.374-2.37c0.073-0.046,0.136-0.088,0.207-0.135
							c0.497-0.206,1.076-0.345,1.749-0.343c0.26,0,0.534,0.03,0.823,0.063c0.806,0.095,2.045,0.095,3.415-0.023
							c0.91,0.136,1.875,0.235,2.82,0.275c0.58,0.024,1.156,0.024,1.705-0.008c1.736-0.106,3.215-0.54,3.852-1.479
							c0.801,0.208,1.56,0.381,2.255,0.507c0.505,0.854,1.424,1.918,2.342,3.055C5.411,9.37,3.04,9.494,0.179,9.256
							C-1.456,9.12-3.304,8.864-5.325,8.572c-0.765-0.113-1.55-0.229-2.342-0.349c-0.849-0.129-1.596-0.197-2.239-0.229
							C-11.939,7.896-13.167,8.323-13.909,8.876z"/>
						<path fill="#ED9280" d="M7.712,9.474c-1.396,0.679-3.69,0.634-6.575,0.308C-1.188,9.52-4.009,9.06-7.362,8.599
							c-3.946-0.541-5.923,0.138-6.912,1.002c-0.022-1.143,0.29-2.17,1.234-2.761c0.08-0.049,0.148-0.095,0.226-0.144
							c0.736-0.25,1.712-0.342,2.941,0.063c1.422,0.464,4.391,0.976,7.177,0.924C0.094,7.634,2.699,7.023,3.39,5.25
							c0.839,0.2,1.624,0.359,2.328,0.46C5.996,6.729,6.84,8.043,7.712,9.474z"/>
					</g>
				</g>
				<g>
					<g>
						<path fill="#F19A88" d="M-15.231,7.228c-1.074,2.398,0.07,4.194,1.72,5.797c0.181,0.481,0.367,0.931,0.537,1.303
							c-0.556-0.229-1.172-0.282-1.846-0.065c-1.229-0.364-3.163-1.452-3.873-4.706c0,0-0.532-3.32,0.098-6.093
							c0.627-2.77,2.414-4.985,7.048-2.771c0,0,1.014,0.193,2.178,0.437c0.504,0.18,5.094,1.785,5.613,1.973
							c-0.335,0.688-1.007,1.19-1.799,1.533c-1.311,0.047-3.497,0.175-5.473,0.557C-13.003,5.565-14.766,6.19-15.231,7.228z"/>
						<path fill="#E38070" d="M-17.754,4.403c0.585-2.336,2.368-4.154,6.336-2.591c0.248-0.047,1.269,0.068,2.381,0.228
							c0.617,0.115,4.456,1.333,5.011,1.468c-0.365,0.564-1.176,0.956-1.903,1.247C-6.708,4.82-7.735,4.901-8.823,5.036
							c-0.734,0.094-1.492,0.209-2.219,0.361c-1.149,0.235-2.219,0.564-2.963,1.03c-0.392,0.246-0.688,0.533-0.853,0.867
							c-0.481,0.98-0.529,1.907-0.305,2.776c0.251,0.974,0.849,1.866,1.572,2.712c0.16,0.444,0.327,0.86,0.484,1.217
							c-0.462-0.215-0.968-0.299-1.513-0.184c-0.494-0.188-1.107-0.498-1.675-1.058c-0.657-0.647-1.25-1.594-1.571-2.989
							C-17.956,9.536-18.358,6.78-17.754,4.403z"/>
						<path fill="#D46558" d="M-16.913,5.345c0.551-1.899,2.321-3.321,5.626-2.405c0.493-0.097,1.522-0.063,2.582,0.017
							c0.731,0.048,3.698,0.9,4.286,0.981c-0.396,0.441-1.222,0.7-1.887,0.938c-0.762,0.107-1.711,0.212-2.696,0.355
							c-0.686,0.102-1.386,0.225-2.053,0.375c-1.008,0.229-1.947,0.531-2.628,0.961c-0.359,0.222-0.634,0.486-0.801,0.795
							c-0.46,0.843-0.539,1.709-0.382,2.555c0.17,0.914,0.631,1.797,1.193,2.625c0.14,0.408,0.29,0.792,0.432,1.133
							c-0.369-0.201-0.763-0.315-1.183-0.299c-0.401-0.201-0.878-0.486-1.315-0.941c-0.55-0.573-1.028-1.356-1.304-2.443
							C-17.221,9.515-17.49,7.333-16.913,5.345z"/>
						<path fill="#C44B43" d="M-16.071,6.284c0.509-1.465,2.273-2.49,4.915-2.222c0.74-0.144,1.774-0.189,2.782-0.192
							c0.846-0.021,2.812,0.404,3.435,0.434C-5.364,4.621-6.08,4.812-6.681,4.997c-0.749,0.148-1.617,0.273-2.5,0.428
							c-0.637,0.111-1.278,0.236-1.889,0.392c-0.865,0.22-1.669,0.498-2.291,0.889c-0.324,0.2-0.58,0.445-0.751,0.727
							c-0.434,0.708-0.544,1.51-0.458,2.328c0.091,0.857,0.414,1.727,0.815,2.543c0.12,0.37,0.25,0.728,0.378,1.049
							c-0.275-0.188-0.558-0.336-0.85-0.416c-0.308-0.217-0.65-0.477-0.956-0.827c-0.439-0.5-0.808-1.118-1.035-1.901
							C-16.486,9.495-16.627,7.882-16.071,6.284z"/>
						<path fill="#B52F30" d="M-14.273,9.601c0.021,1.132,0.372,2.37,0.763,3.424c-0.412-0.399-0.794-0.813-1.117-1.243
							c-0.321-0.433-0.586-0.881-0.765-1.358c-0.359-0.946-0.375-1.997,0.161-3.194c0.465-1.036,2.228-1.661,4.204-2.039
							C-10.04,4.999-9,4.872-8.041,4.786c0.957-0.084,1.832-0.13,2.487-0.152C-6.629,5.097-8.005,5.339-9.36,5.619
							c-1.355,0.282-2.688,0.602-3.68,1.223C-13.984,7.431-14.296,8.458-14.273,9.601z"/>
					</g>
				</g>
				<g>
					<g>
						<path fill="#EA7D6D" d="M-9.088,20.24c0,0-1.633-1.964-4.166-4.854c-0.542-1.184-1.859-3.57-1.02-5.786
							c0.933-0.815,0.618-3.051,6.259-1.081c-0.206,0.153-0.387,0.316-0.549,0.486c-0.828,0.041-1.771,0.342-2.396,1.336
							c-1.342,2.139,2.551,6.183,3.141,7.92c0.427,1.259,1.02,4.698,2.777,5.17c0.413,0.623,0.919,1.276,1.531,1.961
							C-5.633,24.884-8.367,23.581-9.088,20.24z"/>
						<path fill="#DB6253" d="M-8.151,8.639C-8.34,8.791-8.507,8.952-8.654,9.116c-0.723,0.178-1.486,0.563-1.956,1.486
							c-0.427,0.842-0.143,1.942,0.382,3.06c0.779,1.661,2.106,3.373,2.549,4.419c0.154,0.363,0.319,0.852,0.507,1.377
							c0.298,1.334,0.826,2.969,1.875,3.49c0.36,0.596,0.808,1.223,1.354,1.878c-0.092-0.003-0.185-0.006-0.279-0.011
							c-1.941-0.545-3.916-2.305-4.525-4.996c-0.008-0.027-0.021-0.06-0.039-0.093c-0.215-0.395-1.686-2.174-3.683-4.573
							c-0.625-1.263-1.772-3.439-0.975-5.368C-12.589,8.925-12.59,7.175-8.151,8.639z"/>
						<path fill="#CC463C" d="M-8.289,8.763C-8.46,8.91-8.612,9.068-8.745,9.229c-0.616,0.313-1.197,0.785-1.515,1.632
							c-0.309,0.829-0.056,1.844,0.388,2.868c0.667,1.543,1.798,3.115,2.335,4.171c0.187,0.364,0.377,0.808,0.581,1.262
							c0.167,1.182,0.56,2.595,1.402,3.305c0.309,0.568,0.698,1.166,1.178,1.791c-0.04,0.034-0.078,0.066-0.119,0.099
							c-1.841-0.511-3.365-2.687-3.912-4.959c-0.017-0.054-0.035-0.106-0.058-0.156c-0.239-0.556-1.595-2.222-3.219-4.321
							c-0.711-1.339-1.689-3.306-0.933-4.947C-11.837,9.065-11.524,7.798-8.289,8.763z"/>
						<path fill="#BD2929" d="M-8.426,8.884c-0.153,0.146-0.29,0.299-0.411,0.459c-0.507,0.446-0.899,1.011-1.072,1.778
							c-0.184,0.813,0.03,1.743,0.395,2.677c0.554,1.425,1.489,2.856,2.119,3.92c0.218,0.368,0.436,0.765,0.656,1.146
							c0.036,1.027,0.295,2.224,0.931,3.119c0.257,0.543,0.587,1.11,1.002,1.707c0.013,0.064,0.025,0.135,0.039,0.2
							c-1.737-0.474-2.813-3.065-3.298-4.919c-0.024-0.077-0.049-0.152-0.074-0.224c-0.268-0.711-1.507-2.266-2.758-4.064
							c-0.794-1.418-1.604-3.172-0.889-4.527C-11.085,9.205-10.459,8.422-8.426,8.884z"/>
						<path fill="#AE0017" d="M-7.818,18.261c-0.295-0.869-1.416-2.314-2.294-3.811c-0.88-1.495-1.518-3.04-0.847-4.109
							c0.625-0.994,1.568-1.295,2.396-1.336c-1.248,1.316-1.191,3.104-0.596,4.861c0.595,1.758,1.729,3.488,2.636,4.699
							c-0.149,1.369,0.242,2.983,1.482,4.864C-6.798,22.959-7.391,19.52-7.818,18.261z"/>
					</g>
				</g>
				<g>
					<g>
						<path fill="#BD2929" d="M16.384,19.831c1.935,3.949,4.244,10.908-2.935,12.033c1.536-1.978,3.215-4.564,3.44-6.695
							c0.047-0.455-0.081-1.031-0.341-1.703c-0.844-2.186-2.849-4.934-4.909-7.805C13.498,16.581,15.454,17.939,16.384,19.831z"/>
						<path fill="#C83F37" d="M13.353,31.985c0.06-0.074,0.119-0.15,0.177-0.228c2.438-1.115,2.97-3.447,3.081-5.399
							c0.069-1.216-0.711-3.197-1.104-4.104c-0.086-0.508-0.278-1.035-0.595-1.598c-0.314-0.557-0.713-1.085-1.148-1.837
							c-0.146-0.257-0.46-0.796-0.628-1.063c-0.766-1.231-1.589-2.489-2.348-3.706c-0.096-0.272-0.2-0.555-0.317-0.845
							c0.715,0.579,1.614,1.331,2.627,1.981c0.992,0.639,1.988,1.503,2.803,2.463c0.774,0.922,1.339,1.944,1.65,2.913
							c0.892,2.787,2.48,6.615,0.593,9.222C17.264,30.994,15.757,31.866,13.353,31.985z"/>
						<path fill="#D35447" d="M13.258,32.108c0.081-0.104,0.164-0.209,0.245-0.314c4.017-1.117,4.295-4.458,3.77-7.104
							c-0.285-1.425-2.268-4.438-3.15-5.349c-0.22-0.564-0.485-1.039-0.848-1.496c-0.409-0.518-0.881-0.943-1.377-1.783
							c-0.098-0.168-0.517-0.897-0.629-1.075c-0.802-1.298-1.571-2.566-2.17-3.717c0.084-0.162,0.155-0.334,0.203-0.521
							c0.843,0.861,2.037,2.033,3.494,2.951c1.336,0.846,2.715,2.08,3.815,3.449c1.071,1.335,1.817,2.81,2.106,4.145
							c0.633,2.929,2.257,6.752-0.315,9.277C17.267,31.585,15.599,32.257,13.258,32.108z"/>
						<path fill="#DF6859" d="M13.164,32.231c0.103-0.13,0.209-0.269,0.314-0.402c5.597-1.122,5.676-5.498,4.457-8.807
							c-0.611-1.652-3.824-5.677-5.195-6.593c-0.353-0.622-0.706-1.032-1.103-1.393c-0.516-0.473-1.051-0.805-1.605-1.729
							c-0.049-0.085-0.572-1.003-0.628-1.092c-0.839-1.364-1.557-2.643-1.993-3.728C7.677,8.44,7.922,8.377,8.136,8.29
							c0.968,1.146,2.458,2.736,4.356,3.922c1.683,1.057,3.446,2.659,4.834,4.437c1.365,1.75,2.322,3.672,2.562,5.379
							c0.426,3.063,2.033,6.887-1.228,9.332C17.27,32.177,15.439,32.647,13.164,32.231z"/>
						<path fill="#EA7D6D" d="M7.536,9.448c-0.874-1.43-1.54-2.72-1.817-3.738c0.446,0.064,0.867,0.11,1.247,0.127
							C8.06,7.27,9.85,9.272,12.188,10.728c2.029,1.264,4.174,3.238,5.848,5.423c1.66,2.165,2.857,4.532,3.018,6.609
							c0.246,3.208,1.811,7.021-2.138,9.389c-1.642,0.619-3.635,0.891-5.849,0.206c0.125-0.157,0.254-0.325,0.383-0.489
							c7.179-1.125,7.081-6.563,5.145-10.511c-0.93-1.896-5.379-6.914-7.238-7.836c-1.213-1.688-2.163-1.277-3.191-2.964
							L7.536,9.448z"/>
					</g>
				</g>
				<g>
					<g>
						<path fill="#A94225" d="M-0.866,15.459c0.692,0.216,1.372,0.433,1.972,0.619c-0.84,0.839-1.89,2.141-2.143,3.614
							c-1.022,0.618-0.526,1.831-0.017,3.649c0.066,0.238,0.107,0.464,0.136,0.677C-6.253,21.13-3.113,17.376-0.866,15.459z"/>
						<path fill="#BA5137" d="M-1.936,15.156c0.758,0.212,1.693,0.5,2.55,0.766c-1.721,0.698-3.681,2.688-1.622,4.854
							c-0.737,0.672-0.401,1.737-0.06,3.202c-0.048,0.232-0.221,0.449-0.499,0.384C-6.771,21.06-4.255,17.104-1.936,15.156z"/>
						<path fill="#CB6048" d="M-3.005,14.854c0.822,0.204,2.013,0.565,3.125,0.914c-2.599,0.557-5.467,3.229-1.097,6.086
							c-0.455,0.727-0.278,1.65-0.106,2.764c-0.159,0.22-0.548,0.433-1.13,0.087C-7.288,20.988-5.399,16.835-3.005,14.854z"/>
						<path fill="#DB6E5A" d="M-4.075,14.554c0.885,0.196,2.331,0.637,3.702,1.062c-3.478,0.416-7.258,3.771-0.574,7.324
							c-0.172,0.778-0.154,1.559-0.15,2.316c-0.273,0.213-0.878,0.419-1.766-0.206C-7.802,20.917-6.543,16.565-4.075,14.554z"/>
						<path fill="#EA7D6D" d="M-1.111,25.893c-0.389,0.206-1.206,0.405-2.399-0.501c-4.81-4.549-4.177-9.098-1.635-11.141
							c0.953,0.191,2.654,0.703,4.28,1.208c-4.357,0.276-9.046,4.314-0.052,8.561C-0.805,24.854-0.95,25.488-1.111,25.893z"/>
					</g>
				</g>
				<g>
					<g>
						<path fill="#AE0017" d="M-0.433,24.078c-1.029-1.161-0.788-2.28-0.547-2.851c0.18,0.699,0.59,1.417,1.326,2.118
							c0.733,0.704,1.794,1.395,3.272,2.045c0.363,0.193,0.919,0.283,1.559,0.271c0.636-0.011,1.358-0.132,2.05-0.355
							c-0.376,0.536-0.757,0.947-1.14,1.245c-0.382,0.299-0.765,0.488-1.144,0.589c-0.757,0.202-1.497,0.053-2.186-0.275
							C1.382,26.203,0.22,24.819-0.433,24.078z"/>
						<path fill="#BF332D" d="M-0.771,23.714c-0.785-1.396-0.661-2.287-0.223-2.871c0.053,0.414,0.156,1.079,0.383,1.504
							c0.125,0.311,0.363,0.732,0.684,1.177c0.278,0.387,0.618,0.795,1.012,1.125c0.701,0.591,1.645,1.221,2.812,1.314
							c0.43,0.071,1.018,0.008,1.674-0.23c0.136-0.05,0.273-0.107,0.415-0.173c0.053-0.01,0.105-0.02,0.158-0.029
							c0.607-0.12,1.218-0.344,1.723-0.661c-0.184,0.802-0.558,1.438-1.256,1.912c-0.432,0.243-0.848,0.416-1.251,0.524
							c-0.771,0.209-1.484,0.107-2.18-0.039c-0.576-0.121-1.134-0.264-1.79-0.563c-1.032-0.474-1.355-0.659-1.54-1.306
							c-0.091-0.096-0.023-0.551-0.146-0.618C-0.389,24.49-0.547,24.114-0.771,23.714z"/>
						<path fill="#D05848" d="M-1.108,23.351c-0.666-1.541-0.532-2.296,0.1-2.891c0.006,0.44,0.049,1.377,0.243,1.834
							c0.043,0.305,0.254,0.834,0.568,1.402c0.286,0.523,0.662,1.084,1.094,1.493c0.775,0.74,1.888,1.572,3.276,1.347
							c0.499-0.053,1.118-0.277,1.792-0.734c0.144-0.1,0.287-0.209,0.433-0.326c0.063-0.017,0.126-0.028,0.186-0.045
							c0.723-0.198,1.42-0.53,1.923-1.002c0.007,1.068-0.356,1.935-1.37,2.579c-0.483,0.193-0.933,0.347-1.359,0.463
							c-0.784,0.214-1.493,0.208-2.175,0.196c-0.745-0.012-1.454-0.028-2.377-0.35c-1.661-0.578-1.909-0.607-1.942-1.547
							c-0.061-0.063,0.189-0.854,0.051-0.866C-0.661,24.544-0.827,24.005-1.108,23.351z"/>
						<path fill="#E27C69" d="M-1.446,22.985c-0.578-1.678-0.405-2.304,0.423-2.908c-0.04,0.469-0.062,1.678,0.101,2.168
							c-0.039,0.295,0.141,0.934,0.453,1.627c0.295,0.658,0.709,1.368,1.179,1.861c0.848,0.893,2.131,1.922,3.741,1.375
							c0.565-0.177,1.214-0.563,1.908-1.238c0.15-0.147,0.301-0.308,0.453-0.48c0.072-0.02,0.144-0.036,0.213-0.061
							c0.835-0.278,1.62-0.715,2.119-1.341c0.2,1.335-0.153,2.429-1.483,3.247c-0.533,0.143-1.018,0.278-1.467,0.402
							c-0.798,0.217-1.498,0.335-2.17,0.433c-0.911,0.131-1.771,0.21-2.965-0.139c-2.29-0.672-2.461-0.555-2.344-1.787
							c-0.031-0.032,0.4-1.15,0.248-1.112C-0.933,24.597-1.129,23.9-1.446,22.985z"/>
						<path fill="#EA7D6D" d="M8.302,27.504c-1.584,0.243-2.793,0.665-3.854,0.969c-1.062,0.305-2.092,0.452-3.553,0.073
							c-2.921-0.757-3.015-0.5-2.748-2.026c0,0,0.614-1.45,0.446-1.362c0.202-0.509-0.049-1.354-0.376-2.535
							c-0.509-1.818-0.277-2.311,0.745-2.929c-0.086,0.497-0.17,1.978-0.037,2.5c-0.243,0.573,0.568,2.922,1.597,4.084
							c1.309,1.479,3.691,3.338,6.704-0.971c0.081-0.025,0.162-0.048,0.242-0.077c0.947-0.348,1.817-0.899,2.314-1.676
							C10.176,25.147,9.948,26.512,8.302,27.504z"/>
						<path fill="#BF3D32" d="M7.468,25.229c-1.438,0.433-2.013,0.658-3.531-0.735c0.474,0.029,2.268,0.078,2.346-2.006
							c0.073-1.924-2.606-4.569-3.944-4.279c0.117-0.55,0.343-1.064,0.688-1.466c2.376,0.91,4.511,2.087,5.336,3.552
							c0.664,1.182,1.178,2.271,1.42,3.26C9.286,24.329,8.416,24.882,7.468,25.229z"/>
					</g>
				</g>
				<path fill="#A94225" d="M5.062,22.803c0,0-1.767,0.171-2.836-4.085c-0.395-1.567,3.133,0.549,3.79,1.668
					C6.91,21.909,5.624,22.397,5.062,22.803z"/>
			</g>
		</g>
	</g>
</symbol>
<use xlink:href="#flower"  width="73.784" height="69.086" x="-36.892" y="-34.543" transform="matrix(2.3288 4.4818 4.9032 -2.1778 212.3525 217.7129)" overflow="visible"/>
</svg>
