<?xml version="1.0" encoding="utf-8"?>
<!-- Generator: Adobe Illustrator 16.0.0, SVG Export Plug-In . SVG Version: 6.00 Build 0)  -->
<!DOCTYPE svg PUBLIC "-//W3C//DTD SVG 1.1//EN" "http://www.w3.org/Graphics/SVG/1.1/DTD/svg11.dtd">
<svg version="1.1" id="svg_layer_1" xmlns="http://www.w3.org/2000/svg" xmlns:xlink="http://www.w3.org/1999/xlink" x="0px" y="0px" width="600px" height="450px" viewBox="0 0 1024 768" style="enable-background:new 0 0 1024 768;" xml:space="preserve">
<rect style="fill:#FF6699;" width="1024" height="768"/>
<path style="stroke:#000000;stroke-miterlimit:10;" d="M601.613,627.637L1024.5,443.365V377c0,0-68.38,23.161-80.5,7
	c-9-12-1.451-26.054-1.451-26.054S988,336,1013.5,260.871c15.497-45.659,11.412-146.023,0-192.871c-9.5-39-43.221-67.5-43.221-67.5
	H571c0,0-40.03,42.091-40.03,90.953c0,50.063,22.105,78.021,22.105,78.021s-5.889-25.172-6.518-33.23
	c-0.715-9.147,0.142-37.587,0.142-37.587s5.33,22.357,8.852,29.095c4.35,8.323,17.056,24.02,27.096,35.887
	c7.455,8.813,0,0,3.762,17.664c3.426,16.088,16.13,18.279,16.13,18.279s-11.379,2.001-15.274,2.273
	c-4.692,0.327-16.764-3.354-16.764-3.354s15.52,5.114,21.333,6C595.389,205.042,604,204,604,204l-31.856-1.178L605.5,207
	c0,0-10.139,47.486-11.001,66.5c-0.499,11,12.695,9.771,15.001,9.5c8.5-1,14.49-1.722,18,1.5c2.883,2.646,5.702,7.023,5.193,15.499
	c-0.36,6.004-6.535,9.384-5.193,11.501c1.481,2.338,14.672,2.683,14.672,2.683s-10.78,6.704-9.376,9.903
	c1.265,2.881,12.482,3.666,15.828,6.301c5.585,4.399,9.625,19.087,15.204,24.032c4.512,4,14.082,10.814,23.863,10.712
	c12.589-0.131,18.464-2.47,25.599-6.411c10.216-5.643,29.282-24.051,40.86-22.581c9.996,1.27,29.384,19.972,29.957,30.032
	c0.56,9.827-4.556,17.299-10.569,22.849c-7.565,6.981-20.767,10.143-32.511,11.539c-12.892,1.533-26.027-8.228-26.027-8.228
	s13.637,9.532,25.415,14.623c8.584,3.711,23.63,7.129,30.585,7.377c15.79,0.563,26.667-10.333,26.667-10.333
	s5.86,35.744-0.167,44.001c-14.031,19.22-57.986,25.114-90.661,29c-37.839,4.5-83.765-7.401-109.339,10.5
	c-25,17.5-22.477,46.67-22,60.5C577,591.5,601.613,627.637,601.613,627.637z"/>
<path style="fill:#FF7BAC;stroke:#000000;stroke-miterlimit:10;" d="M580,87c0,0,79.394,95.51,192,115c104,18,130,125,130,125
	s-16-95-122-104C682.787,214.746,580,87,580,87z"/>
<circle style="fill:none;stroke:#FFFFFF;stroke-width:4;stroke-miterlimit:10;" cx="758" cy="322" r="50"/>
<path style="fill:none;stroke:#FFFFFF;stroke-width:2;stroke-miterlimit:10;" d="M953,387c1.949-0.521,4.895-0.014,6.849,0.151
	c2.001,42.174-39.111,64.342-64.853,88.822C867.435,502.186,830.124,529.455,791,532c-18.033,1.173-30.771-3.642-32-22
	c-1.16-17.317,3.152-32.92,15-45"/>
<path style="fill:none;stroke:#FFFFFF;stroke-width:2;stroke-miterlimit:10;" d="M779,461c7.313,14.168,0.073,31.324,13.703,43.274
	c13.585,11.912,33.2,3.96,47.468-1.251c22.657-8.276,43.611-19.854,65.829-28.829c13.981-5.648,30.376-13.049,41.004-24.116
	c14.396-14.992,17.721-41.264,15.822-61.904c-1.137-0.267-1.803-0.746-2.826-1.174"/>
<circle style="fill:#FFFFFF;" cx="681.5" cy="681.5" r="79.5"/>
<path style="fill:none;stroke:#FFFFFF;stroke-width:2;stroke-miterlimit:10;" d="M771,462c-0.048,13.743-6.821,39.284,4.249,49.826
	c12.363,11.772,37.178,9.359,50.974,3.396c20.47-8.848,43.6-12.209,64.747-21.025c18.966-7.906,28.114-18.864,38.279-36.948
	C942.05,434.477,947.164,408.124,958,385"/>
<circle cx="816" cy="618.637" r="60"/>
<circle cx="652" cy="679" r="50"/>
<g>
	<circle style="fill:#FFFFFF;" cx="818" cy="639" r="40"/>
	<circle style="fill:#FF7BAC;" cx="813" cy="639" r="30"/>
</g>
<circle style="fill:#FF7BAC;" cx="657" cy="669" r="30"/>
<g>
	<circle style="fill:#FFFFFF;" cx="942" cy="550" r="40"/>
	<circle style="fill:#FF7BAC;" cx="937" cy="550" r="30"/>
</g>
<g>
	<circle style="fill:#FFFFFF;" cx="883" cy="729" r="40"/>
	<circle style="fill:#FF7BAC;" cx="878" cy="729" r="30"/>
</g>
<circle style="fill:#FFFFFF;" cx="963" cy="699" r="60"/>
<path style="stroke:#000000;stroke-miterlimit:10;" d="M602,768c0,0-163.59-123.113-193-152.909
	c-10.879-11.021-27.144-35.128-39-45.091c-8.293-6.969-28.16-15.717-37-21.978c-6.723-4.761-12.283-18.436-20.585-30.628
	c-9.539-14.01-18.165-28.895-21.415-26.383c-3.627,2.803,1.217,10.999,8.027,30.5c3.618,10.361,6.472,17.799,8.184,22.107
	c1.154,2.904,0.433,2.393-0.211,3.387c-0.747,1.155-3.502,1.099-3.502,1.099L253.5,549c0,0-59.5,6-59.5,13.185
	c0,6.315,42.71,0.255,57,0.815c9.798,0.384,39.008,3.099,39.008,3.099S194,567,194,574.887c0,6.113,37.44,5.194,50,6.113
	c16.169,1.183,46,4,46,4c-36.742,2.165-34.153,1.778-44.75,1.5c-12.563-0.33-43.919-5.946-45.75-1.5
	c-1.75,4.25,33.508,12.354,45,13.271c17.154,1.367,47.75,5.229,47.75,5.229s-25.708-0.016-36.75,1
	c-19.979,1.838-36.5-3.25-38.25,1.75c-1.804,5.153,34.806,7.982,42.25,9c29.014,3.966,36.101,8.781,44,14.25
	c13,9,22.75,12.75,65.5,19.516C390.023,652.343,501,769,501,769"/>
<path style="stroke:#000000;stroke-miterlimit:10;" d="M331,349.001c0,0-117.085,22.359-37.809,175.095
	C338.562,611.507,156,745,156,745s163.117-80.931,115.586-214.797C217.561,378.045,331,349.001,331,349.001z"/>
<path style="fill:#FFFFFF;" d="M288,350c-3.746-4.538,5-23,5-23s-20.361-17.639-15.5-22.5c5.038-5.038,28.5,0,28.5,0
	s-0.525-28.868,7-32.25c5.233-2.352,20,11.25,20,11.25s14.425,1.277,19,0c5.348-1.492,14.149-8.799,19-11.5
	c5.998-3.339,21.104-8.267,27-4.75c6.994,4.171,10,31.25,10,31.25s22.25-5.309,26,0c11,15.568-5,29.25-5,29.25
	s23.762,5.504,24.883,12.375c0.908,5.563-15.883,15.938-15.883,15.938s-4.678,13.637-11,15.969c-10.79,3.979-40-9.516-40-9.516
	s-5.999,20.123-12,21.492c-6.779,1.547-22.75-16.004-22.75-16.004s-13.793,11.45-18.25,8.998c-6.168-3.394-3-28.001-3-28.001
	S294.845,358.293,288,350z"/>
<path style="fill:#FF7BAC;" d="M360,314.5c0,0-13.365-4.063-18-4.25c-6.204-0.25-6,12.25-6,12.25s-15.281-3.321-18.5,0
	c-2.785,2.874,9.5,12.5,9.5,12.5s-0.775,7.902,1,9.5c3.716,3.345,29.598,2.5,29.598,2.5s11.999,10.579,16.402,9
	c5.069-1.817,8-20,8-20s17.638-7.611,16-10.929c-1.549-3.138-25-2.571-25-2.571s0.587-17.339-4-18.5
	C365.648,303.152,360,314.5,360,314.5z"/>
</svg>
