<?xml version="1.0" encoding="utf-8"?>
<!-- Generator: Adobe Illustrator 16.0.0, SVG Export Plug-In . SVG Version: 6.00 Build 0)  -->
<!DOCTYPE svg PUBLIC "-//W3C//DTD SVG 1.1//EN" "http://www.w3.org/Graphics/SVG/1.1/DTD/svg11.dtd">
<svg version="1.1" id="图层_1" xmlns="http://www.w3.org/2000/svg" xmlns:xlink="http://www.w3.org/1999/xlink" x="0px" y="0px"
	 width="480px" height="540px" viewBox="0 0 480 540" style="enable-background:new 0 0 480 540;" xml:space="preserve">
<radialGradient id="SVGID_1_" cx="303.1348" cy="340.4102" r="71.3057" gradientTransform="matrix(1.8678 0 0 0.1549 -319.9697 309.9062)" gradientUnits="userSpaceOnUse">
	<stop  offset="0" style="stop-color:#00F90B"/>
	<stop  offset="0.1129" style="stop-color:#05F90F"/>
	<stop  offset="0.2407" style="stop-color:#12F91C"/>
	<stop  offset="0.3758" style="stop-color:#29FA31"/>
	<stop  offset="0.5159" style="stop-color:#49FB4E"/>
	<stop  offset="0.66" style="stop-color:#72FC74"/>
	<stop  offset="0.8074" style="stop-color:#A4FDA2"/>
	<stop  offset="0.9547" style="stop-color:#DEFFD8"/>
	<stop  offset="1" style="stop-color:#F1FFEA"/>
</radialGradient>
<ellipse style="fill:url(#SVGID_1_);" cx="246.22" cy="362.642" rx="186.778" ry="16.783"/>
<linearGradient id="SVGID_2_" gradientUnits="userSpaceOnUse" x1="197" y1="399.5" x2="294" y2="399.5">
	<stop  offset="0.0126" style="stop-color:#1C2126"/>
	<stop  offset="0.0586" style="stop-color:#000005"/>
	<stop  offset="0.2218" style="stop-color:#5E5E5E"/>
	<stop  offset="0.4612" style="stop-color:#606060"/>
	<stop  offset="0.5474" style="stop-color:#676767"/>
	<stop  offset="0.6089" style="stop-color:#727272"/>
	<stop  offset="0.6586" style="stop-color:#838383"/>
	<stop  offset="0.7012" style="stop-color:#999999"/>
	<stop  offset="0.7388" style="stop-color:#B5B5B5"/>
	<stop  offset="0.7729" style="stop-color:#D5D5D5"/>
	<stop  offset="0.8033" style="stop-color:#F9F9F9"/>
	<stop  offset="0.8075" style="stop-color:#FFFFFF"/>
	<stop  offset="0.825" style="stop-color:#DDDDDD"/>
	<stop  offset="0.8619" style="stop-color:#9B9B9B"/>
	<stop  offset="0.8971" style="stop-color:#646464"/>
	<stop  offset="0.9294" style="stop-color:#393939"/>
	<stop  offset="0.9583" style="stop-color:#1A1A1A"/>
	<stop  offset="0.9828" style="stop-color:#070707"/>
	<stop  offset="1" style="stop-color:#000000"/>
</linearGradient>
<path style="fill:url(#SVGID_2_);" d="M294,399.076c0,5.992-1.182,11.924-3.87,11.924h-87.66c-2.691,0-5.47-5.932-5.47-11.924
	v-0.249c0-5.991,2.779-10.827,5.47-10.827h87.66c2.688,0,3.87,4.836,3.87,10.827V399.076z"/>
<radialGradient id="SVGID_3_" cx="297.9233" cy="448.7793" r="38.8835" gradientTransform="matrix(1.8122 0 0 0.2066 -292.5605 409.8456)" gradientUnits="userSpaceOnUse">
	<stop  offset="0" style="stop-color:#444444"/>
	<stop  offset="1" style="stop-color:#EDFBFF"/>
</radialGradient>
<path style="fill:url(#SVGID_3_);" d="M345.576,502.545c0,6.612-43.98,11.974-98.227,11.974c-54.25,0-98.228-5.361-98.228-11.974
	c0-6.613,43.978-11.974,98.228-11.974C301.596,490.571,345.576,495.932,345.576,502.545z"/>
<g>
	
		<linearGradient id="SVGID_4_" gradientUnits="userSpaceOnUse" x1="559.5391" y1="145.7744" x2="622.9463" y2="168.8528" gradientTransform="matrix(-0.3397 0.9405 0.9405 0.3397 162.4511 -312.0558)">
		<stop  offset="0" style="stop-color:#038500"/>
		<stop  offset="1" style="stop-color:#00F010"/>
	</linearGradient>
	<path style="fill:url(#SVGID_4_);" d="M215.533,284.908c0,0-20.443,35.13-50.427,43.148c-23.318,6.234-53.022,4.856-93.024-22.157
		C38.293,283.08,3.569,281.599,3.569,281.599s83.479-21.083,121.519-17.464C185.782,269.911,215.533,284.908,215.533,284.908z"/>
	
		<linearGradient id="SVGID_5_" gradientUnits="userSpaceOnUse" x1="489.4912" y1="133.8862" x2="535.9075" y2="147.1959" gradientTransform="matrix(-0.3397 0.9405 0.9405 0.3397 162.4511 -312.0558)">
		<stop  offset="0" style="stop-color:#039900"/>
		<stop  offset="0.1931" style="stop-color:#03A302"/>
		<stop  offset="0.5222" style="stop-color:#02BE07"/>
		<stop  offset="0.945" style="stop-color:#00EA0F"/>
		<stop  offset="1" style="stop-color:#00F010"/>
	</linearGradient>
	<path style="fill:url(#SVGID_5_);stroke:#FFFFFF;stroke-width:0.5;stroke-miterlimit:10;" d="M10.443,276.522
		c0,0,46.745-46.547,79.812-66.185c31.288-18.584,58.105-20.544,88.482-3.983c48.325,26.347,43.669,73.479,43.669,73.479
		s-49.935-18.649-91.962-20.063C82.722,258.167,10.443,276.522,10.443,276.522z"/>
	
		<linearGradient id="SVGID_6_" gradientUnits="userSpaceOnUse" x1="553.6152" y1="150.5151" x2="617.0225" y2="173.5935" gradientTransform="matrix(-0.3397 0.9405 0.9405 0.3397 162.4511 -312.0558)">
		<stop  offset="0" style="stop-color:#038500"/>
		<stop  offset="1" style="stop-color:#00F010"/>
	</linearGradient>
	<path style="fill:url(#SVGID_6_);stroke:#FFFFFF;stroke-width:0.5;stroke-miterlimit:10;" d="M222.003,280.946
		c0,0-20.444,35.13-50.424,43.147c-23.319,6.236-53.024,4.86-93.026-22.156c-33.788-22.818-68.512-24.301-68.512-24.301
		s83.478-21.083,121.518-17.463C192.252,265.95,222.003,280.946,222.003,280.946z"/>
	<path style="fill:#FFFFFF;" d="M116.018,213.384c0,0,11.041-4.126,29.398-2.955c16.198,1.03,25.907,6.713,25.907,6.713
		s-6.573-11.07-27.502-12.422C121.851,203.299,116.018,213.384,116.018,213.384z"/>
	<circle style="fill:#FFFFFF;stroke:#FFFFFF;stroke-width:0.5;stroke-miterlimit:10;" cx="109.911" cy="215.452" r="2.961"/>
	
		<ellipse transform="matrix(-0.3396 0.9406 -0.9406 -0.3396 454.86 300.2764)" style="fill:#FFFFFF;stroke:#FFFFFF;stroke-width:0.5;stroke-miterlimit:10;" cx="122.009" cy="309.831" rx="2.43" ry="2.591"/>
	<path style="fill:#FFFFFF;" d="M127.408,311.957c0,0,8.613,2.899,23.005,2.322c12.701-0.514,20.358-4.223,20.358-4.223
		s-5.254,7.368-21.662,8.042C131.884,318.807,127.408,311.957,127.408,311.957z"/>
</g>
<g>
	<linearGradient id="SVGID_7_" gradientUnits="userSpaceOnUse" x1="276.7954" y1="121.5674" x2="355.5305" y2="150.2246">
		<stop  offset="0" style="stop-color:#038500"/>
		<stop  offset="1" style="stop-color:#00F010"/>
	</linearGradient>
	<path style="fill:url(#SVGID_7_);" d="M256.656,251.105c0,0,50.054-8.813,72.239-39.608
		c17.252-23.952,28.254-58.292,13.447-114.874c-12.509-47.792,0.503-87.884,0.503-87.884s-60.305,86.255-72.209,130.994
		C251.643,211.116,256.656,251.105,256.656,251.105z"/>
	<linearGradient id="SVGID_8_" gradientUnits="userSpaceOnUse" x1="189.1172" y1="106.4868" x2="247.814" y2="123.3179">
		<stop  offset="0" style="stop-color:#039900"/>
		<stop  offset="0.1931" style="stop-color:#03A302"/>
		<stop  offset="0.5222" style="stop-color:#02BE07"/>
		<stop  offset="0.945" style="stop-color:#00EA0F"/>
		<stop  offset="1" style="stop-color:#00F010"/>
	</linearGradient>
	<path style="fill:url(#SVGID_8_);stroke:#FFFFFF;stroke-width:0.5;stroke-miterlimit:10;" d="M333.949,14.47
		c0,0-74.677,34.027-111.856,63.555c-35.18,27.94-48.887,57.627-42.295,98.969c10.486,65.774,67.962,79.842,67.962,79.842
		s-0.735-64.438,15.464-112.804C281.615,89.111,333.949,14.47,333.949,14.47z"/>
	<linearGradient id="SVGID_9_" gradientUnits="userSpaceOnUse" x1="269.3823" y1="127.2979" x2="348.1165" y2="155.9547">
		<stop  offset="0" style="stop-color:#038500"/>
		<stop  offset="1" style="stop-color:#00F010"/>
	</linearGradient>
	<path style="fill:url(#SVGID_9_);stroke:#FFFFFF;stroke-width:0.5;stroke-miterlimit:10;" d="M249.241,256.836
		c0,0,50.054-8.813,72.238-39.608c17.254-23.952,28.257-58.292,13.448-114.874c-12.509-47.792,0.504-87.884,0.504-87.884
		s-60.306,86.255-72.209,130.994C244.228,216.847,249.241,256.836,249.241,256.836z"/>
	<path style="fill:#FFFFFF;" d="M214.73,108.57c0,0-9.551,10.859-15.975,32.212c-5.67,18.841-3.104,32.213-3.104,32.213
		s-10.242-12.021-2.939-36.374C200.375,111.059,214.73,108.57,214.73,108.57z"/>
	
		<ellipse style="fill:#FFFFFF;stroke:#FFFFFF;stroke-width:0.5;stroke-miterlimit:10;" cx="219.761" cy="102.477" rx="3.707" ry="3.582"/>
	
		<ellipse style="fill:#FFFFFF;stroke:#FFFFFF;stroke-width:0.5;stroke-miterlimit:10;" cx="325.752" cy="155.006" rx="3.042" ry="3.134"/>
	<path style="fill:#FFFFFF;" d="M325.961,162.02c0,0-0.247,10.983-7.044,27.111c-5.999,14.23-13.624,21.415-13.624,21.415
		s10.908-2.947,18.674-21.328C332.123,169.922,325.961,162.02,325.961,162.02z"/>
</g>
<g>
	
		<linearGradient id="SVGID_10_" gradientUnits="userSpaceOnUse" x1="341.0903" y1="305.1284" x2="392.2063" y2="323.7331" gradientTransform="matrix(0.7057 0.7085 -0.7085 0.7057 344.9897 -200.5481)">
		<stop  offset="0" style="stop-color:#038500"/>
		<stop  offset="1" style="stop-color:#00F010"/>
	</linearGradient>
	<path style="fill:url(#SVGID_10_);" d="M292.245,311.016c0,0,28.365,18.14,55.022,12.955c20.729-4.033,43.938-15.982,66.549-50.461
		c19.097-29.125,46.271-43,46.271-43s-73.794,15.347-102.874,32.006C310.813,289.095,292.245,311.016,292.245,311.016z"/>
	
		<linearGradient id="SVGID_11_" gradientUnits="userSpaceOnUse" x1="284.1221" y1="295.9302" x2="322.1771" y2="306.8423" gradientTransform="matrix(0.7057 0.7085 -0.7085 0.7057 344.9897 -200.5481)">
		<stop  offset="0" style="stop-color:#039900"/>
		<stop  offset="0.1931" style="stop-color:#03A302"/>
		<stop  offset="0.5222" style="stop-color:#02BE07"/>
		<stop  offset="0.945" style="stop-color:#00EA0F"/>
		<stop  offset="1" style="stop-color:#00F010"/>
	</linearGradient>
	<path style="fill:url(#SVGID_11_);stroke:#FFFFFF;stroke-width:0.5;stroke-miterlimit:10;" d="M452.863,229.333
		c0,0-53.252-16.796-86.36-18.967c-31.327-2.055-53.379,6.393-71.909,29.687c-29.475,37.059-9.572,69.786-9.572,69.786
		s33.403-32.024,66.422-48.54C388.938,242.546,452.863,229.333,452.863,229.333z"/>
	
		<linearGradient id="SVGID_12_" gradientUnits="userSpaceOnUse" x1="336.1279" y1="309.3867" x2="387.2439" y2="327.9914" gradientTransform="matrix(0.7057 0.7085 -0.7085 0.7057 344.9897 -200.5481)">
		<stop  offset="0" style="stop-color:#038500"/>
		<stop  offset="1" style="stop-color:#00F010"/>
	</linearGradient>
	<path style="fill:url(#SVGID_12_);stroke:#FFFFFF;stroke-width:0.5;stroke-miterlimit:10;" d="M285.726,310.505
		c0,0,28.363,18.141,55.021,12.956c20.73-4.034,43.939-15.984,66.55-50.462c19.098-29.125,46.272-43,46.272-43
		s-73.792,15.345-102.875,32.004C304.292,288.583,285.726,310.505,285.726,310.505z"/>
	<path style="fill:#FFFFFF;" d="M347.011,222.084c0,0-10.218,1.052-24.452,8.669c-12.56,6.722-18.349,14.451-18.349,14.451
		s1.439-10.512,17.661-19.209C338.896,216.862,347.011,222.084,347.011,222.084z"/>
	<path style="fill:#FFFFFF;stroke:#FFFFFF;stroke-width:0.5;stroke-miterlimit:10;" d="M354.349,223.01
		c-1.036,0.974-2.664,1.017-3.635,0.097c-0.972-0.919-0.919-2.453,0.117-3.427c1.035-0.973,2.664-1.017,3.635-0.096
		C355.438,220.503,355.385,222.038,354.349,223.01z"/>
	<path style="fill:#FFFFFF;stroke:#FFFFFF;stroke-width:0.5;stroke-miterlimit:10;" d="M376.808,296.14
		c-0.908,0.853-2.288,0.933-3.085,0.177c-0.799-0.754-0.707-2.056,0.199-2.904c0.904-0.853,2.286-0.934,3.084-0.18
		C377.803,293.989,377.714,295.291,376.808,296.14z"/>
	<path style="fill:#FFFFFF;" d="M371.789,298.318c0,0-5.868,5.292-17.543,10.17c-10.3,4.306-17.679,4.416-17.679,4.416
		s6.716,3.449,20.031-2.104C370.572,304.971,371.789,298.318,371.789,298.318z"/>
</g>
<linearGradient id="SVGID_13_" gradientUnits="userSpaceOnUse" x1="197" y1="425.5" x2="294" y2="425.5">
	<stop  offset="0.0126" style="stop-color:#1C2126"/>
	<stop  offset="0.0586" style="stop-color:#000005"/>
	<stop  offset="0.2218" style="stop-color:#5E5E5E"/>
	<stop  offset="0.4612" style="stop-color:#606060"/>
	<stop  offset="0.5474" style="stop-color:#676767"/>
	<stop  offset="0.6089" style="stop-color:#727272"/>
	<stop  offset="0.6586" style="stop-color:#838383"/>
	<stop  offset="0.7012" style="stop-color:#999999"/>
	<stop  offset="0.7388" style="stop-color:#B5B5B5"/>
	<stop  offset="0.7729" style="stop-color:#D5D5D5"/>
	<stop  offset="0.8033" style="stop-color:#F9F9F9"/>
	<stop  offset="0.8075" style="stop-color:#FFFFFF"/>
	<stop  offset="0.825" style="stop-color:#DDDDDD"/>
	<stop  offset="0.8619" style="stop-color:#9B9B9B"/>
	<stop  offset="0.8971" style="stop-color:#646464"/>
	<stop  offset="0.9294" style="stop-color:#393939"/>
	<stop  offset="0.9583" style="stop-color:#1A1A1A"/>
	<stop  offset="0.9828" style="stop-color:#070707"/>
	<stop  offset="1" style="stop-color:#000000"/>
</linearGradient>
<path style="fill:url(#SVGID_13_);" d="M294,424.896c0,5.991-1.182,11.104-3.87,11.104h-87.66c-2.691,0-5.47-5.112-5.47-11.104
	v-0.25c0-5.99,2.779-9.646,5.47-9.646h87.66c2.688,0,3.87,3.656,3.87,9.646V424.896z"/>
<linearGradient id="SVGID_14_" gradientUnits="userSpaceOnUse" x1="197" y1="451.5" x2="294" y2="451.5">
	<stop  offset="0.0126" style="stop-color:#1C2126"/>
	<stop  offset="0.0586" style="stop-color:#000005"/>
	<stop  offset="0.2218" style="stop-color:#5E5E5E"/>
	<stop  offset="0.4612" style="stop-color:#606060"/>
	<stop  offset="0.5474" style="stop-color:#676767"/>
	<stop  offset="0.6089" style="stop-color:#727272"/>
	<stop  offset="0.6586" style="stop-color:#838383"/>
	<stop  offset="0.7012" style="stop-color:#999999"/>
	<stop  offset="0.7388" style="stop-color:#B5B5B5"/>
	<stop  offset="0.7729" style="stop-color:#D5D5D5"/>
	<stop  offset="0.8033" style="stop-color:#F9F9F9"/>
	<stop  offset="0.8075" style="stop-color:#FFFFFF"/>
	<stop  offset="0.825" style="stop-color:#DDDDDD"/>
	<stop  offset="0.8619" style="stop-color:#9B9B9B"/>
	<stop  offset="0.8971" style="stop-color:#646464"/>
	<stop  offset="0.9294" style="stop-color:#393939"/>
	<stop  offset="0.9583" style="stop-color:#1A1A1A"/>
	<stop  offset="0.9828" style="stop-color:#070707"/>
	<stop  offset="1" style="stop-color:#000000"/>
</linearGradient>
<path style="fill:url(#SVGID_14_);" d="M294,450.716c0,5.991-1.182,11.284-3.87,11.284h-87.66c-2.691,0-5.47-5.293-5.47-11.284
	v-0.25c0-5.99,2.779-9.466,5.47-9.466h87.66c2.688,0,3.87,3.476,3.87,9.466V450.716z"/>
<linearGradient id="SVGID_15_" gradientUnits="userSpaceOnUse" x1="223.9678" y1="475" x2="272.5176" y2="475">
	<stop  offset="0.0126" style="stop-color:#7B7E7E"/>
	<stop  offset="1" style="stop-color:#3A3D3F"/>
</linearGradient>
<path style="fill:url(#SVGID_15_);" d="M272.518,475c0,4.988-3.321,9-7.417,9h-33.715c-4.097,0-7.418-4.012-7.418-9l0,0
	c0-4.99,3.321-9,7.418-9h33.715C269.196,466,272.518,470.01,272.518,475L272.518,475z"/>
<text transform="matrix(1 0 0 1 41 60)" style="fill:#009245; font-family:'Constantia'; font-size:18;">Green Energy</text>
</svg>
