<?xml version="1.0" encoding="utf-8"?>
<!-- Generator: Adobe Illustrator 16.0.0, SVG Export Plug-In . SVG Version: 6.00 Build 0)  -->
<!DOCTYPE svg PUBLIC "-//W3C//DTD SVG 1.1//EN" "http://www.w3.org/Graphics/SVG/1.1/DTD/svg11.dtd">
<svg version="1.1" id="star_in_3d_layer" xmlns="http://www.w3.org/2000/svg" xmlns:xlink="http://www.w3.org/1999/xlink" x="0px"
	 y="0px" width="320px" height="366.5px" viewBox="0 0 320 366.5" enable-background="new 0 0 320 366.5" xml:space="preserve">
<g>
	<g>
		<g enable-background="new    ">
			<g>
				<polygon fill="#457011" points="253.158,172.198 216.568,161.738 266.074,52.456 302.664,62.917 				"/>
			</g>
			<g>
				<polygon fill="#329810" points="286.852,266.959 250.262,256.498 216.568,161.738 253.158,172.198 				"/>
			</g>
			<g>
				<polygon fill="#3E7F11" points="200.244,262.846 163.654,252.385 250.262,256.498 286.852,266.959 				"/>
			</g>
			<g>
				<polygon fill="#00FF03" points="212.927,97.647 176.337,87.187 266.074,52.456 302.664,62.917 				"/>
			</g>
			<g>
				<polygon fill="#466D11" points="213.333,96.708 176.744,86.247 267.473,50.962 304.063,61.423 				"/>
			</g>
			<g>
				<polygon fill="#496811" points="131.389,356.34 94.799,345.881 163.654,252.385 200.244,262.846 				"/>
			</g>
			<g>
				<polygon fill="#00FF05" points="131.389,356.34 94.799,345.881 90.792,234.24 127.381,244.701 				"/>
			</g>
			<g>
				<polygon fill="#388B10" points="130.774,358.363 94.185,347.902 90.125,234.767 126.714,245.227 				"/>
			</g>
			<g>
				<polygon fill="#309C10" points="213.035,97.779 176.445,87.318 120.4,15.621 156.99,26.082 				"/>
			</g>
			<g>
				<polygon fill="#00FF04" points="135.277,142.469 98.688,132.009 120.4,15.622 156.99,26.082 				"/>
			</g>
			<g>
				<polygon fill="#3E7E11" points="134.718,141.899 98.128,131.439 120.083,13.765 156.673,24.225 				"/>
			</g>
			<g>
				<polygon fill="#00FF06" points="127.381,244.701 90.792,234.24 14.596,196.986 51.187,207.447 				"/>
			</g>
			<g>
				<polygon fill="#00FF03" points="51.187,207.447 14.596,196.986 98.688,132.009 135.277,142.469 				"/>
			</g>
			<g>
				<path fill="#535412" d="M253.944,172.061L288.054,268l-87.677-4.162l-69.604,94.523l-4.059-113.135l-77.192-37.495
					l85.196-65.833l21.955-117.674l56.66,72.483l90.729-35.285L253.944,172.061z M200.244,262.846l86.607,4.113l-33.693-94.762
					l49.506-109.281l-89.629,34.862L156.99,26.081l-21.713,116.387l-84.091,64.977l76.188,37.006l4.015,111.889L200.244,262.846"/>
			</g>
			<g>
				<polygon fill="#00FF02" points="156.99,26.082 212.927,97.647 302.664,62.917 253.278,171.938 286.852,266.959 200.4,262.859 
					131.389,356.34 127.381,244.701 51.187,207.447 135.277,142.469 				"/>
			</g>
			<g>
				<polygon fill="#309C10" points="126.714,245.227 90.125,234.767 12.932,197.271 49.522,207.732 				"/>
			</g>
			<g>
				<polygon fill="#4A6611" points="49.522,207.732 12.932,197.271 98.128,131.439 134.718,141.899 				"/>
			</g>
		</g>
	</g>
</g>
</svg>
