<?xml version="1.0" encoding="utf-8"?>
<!-- Generator: Adobe Illustrator 16.0.0, SVG Export Plug-In . SVG Version: 6.00 Build 0)  -->
<!DOCTYPE svg PUBLIC "-//W3C//DTD SVG 1.1//EN" "http://www.w3.org/Graphics/SVG/1.1/DTD/svg11.dtd">
<svg version="1.1" id="图层_1" xmlns="http://www.w3.org/2000/svg" xmlns:xlink="http://www.w3.org/1999/xlink" x="0px" y="0px"
	 width="512px" height="583px" viewBox="0 0 1024 1166" style="enable-background:new 0 0 1024 1166;" xml:space="preserve">
<path style="fill:#F15A24;stroke:#B5441B;stroke-miterlimit:10;" d="M668.5,1092c0,0-13.46,40.085-13.5,54
	c-0.016,5.275,5,20.5,5,20.5h-64L668.5,1092z"/>
<path style="fill:#F15A24;stroke:#B5441B;stroke-miterlimit:10;" d="M572.939,385.382c0,0,5.146,16.933,4.896,22.743
	c-0.179,4.164-1.792,13.155-4.896,15.938c-18.36,16.455-70.441,24.342-95.005,26.464C445.791,453.304,349,456.016,349,456.016
	L268,464l44.86-4.422L424,339.002l-20-34.836c0,0-160.646,101.388-197,151.834c-7.119,9.878-19.626,34.377-16,46
	c3.481,11.158,31.885,19.663,44,21c60.377,6.661,247.505-10.306,247.505-10.306l5.149-10.441c0,0-15.94,35.422-28.053,50.747
	c-9.622,12.174-40.769,26.62-46.602,41c-3.415,8.42,3.872,26.984,5,36c9.885,78.973-11.989,207.978-11.989,277
	c0,43,19.426,84.371,19.989,100.25c1.519,42.788-63,159.25-63,159.25h239c0,0,56.765-19.626,70-91.5
	c11.785-64-25.435-104.395-47-132c-18.177-23.269-80.002-52.899-85-82c-8.241-47.983,127.587-199.102,154-240
	c25.541-39.547,56.69-120.991,91-187c46-88.5,54.685-201.72,59-229c5.005-31.642,14.796-97.838,6-128
	c-1.936-6.638-14.09-17.743-21-18c-53.965-2.008-174,128-174,128l-7,59.304l143.92-95.218L793,127l-2,54
	c0,0-10.557,93.586-20,123.165C761.641,333.479,729.869,389,703,404c-7.669,4.281-26.255,6.488-35.037,6.539
	c-7.269,0.042-23.086-2.263-28.963-6.539c-11.414-8.305-22-52-22-52l-7-74.969L572.939,385.382z"/>
<path style="fill:#F15A24;stroke:#B5441B;stroke-miterlimit:10;" d="M460.667,301.332c0,0,14.428,30.433,35.6,51.333
	c18.64,18.401,33.308,23.921,45.035,29.303c5.53,2.538,18.933,6.653,23.429,6.596c6.729-0.085,14.01-8.424,16.847-12.907
	c8.305-13.123,17.298-40.021,19.923-55.326c1.408-8.213,0-33.331,0-33.331l25.5-87l-35-67.665l-37.982-14.333l-172.018,64
	l22.333,87.195l38,7.93L460.667,301.332z"/>
<g>
	<path style="fill:#666666;" d="M491.287,270.807c0,0-15.865-11.587-23.845-12.467c-16.082-1.772-23.132-1.829-28.92,2.894
		c-3.101,2.531,5.149,10.982,7.797,13.983c2.267,2.568,5.226,2.647,5.226,2.647s12.305-7.083,16.048-8.021
		c2.583-0.646,7.969-1.183,10.614-0.885C482.51,269.443,491.287,270.807,491.287,270.807z"/>
	<path style="fill:#333333;" d="M466.381,291.986c-5.607-1.79-10.413-4.994-12.169-6.326c0,0-4.504,0.855-6.024,0.84
		c-1.892-0.02-7.471-1.199-7.471-1.199s4.972-1.855,6.43-2.837c0.023-0.017,2.129-2.126,5.103-5.362
		c3.062-3.331,9.774-7.374,17.282-8.38c3.063-0.41,6.008-0.581,8.751-0.508c10.368,0.276,15.032,3.944,15.53,4.361l2.969,2.49
		l-2.396,3.046c0,0,0.045,2.507-5.187,6.55C482.418,289.902,472.171,293.833,466.381,291.986z"/>
	<path style="stroke:#000000;stroke-width:0.75;stroke-miterlimit:10;" d="M496.267,274.774c0,0-5.953-4.993-21.18-2.953
		c-6.687,0.896-12.57,4.622-14.868,7.122c-3.078,3.35-5.224,5.488-5.224,5.488s10.582,9.076,21.991,5.336
		c9.881-3.238,9.931-3.198,14.104-8.458C495.191,276.142,496.267,274.774,496.267,274.774z"/>
	<path style="fill:#FFFFFF;stroke:#000000;stroke-width:0.5;stroke-miterlimit:10;" d="M472.029,287.696
		c-5.062-0.135-9.615-2.269-12.428-3.938c0.884-0.898,1.944-1.991,3.132-3.243c1.819-1.917,7.574-5.246,14.674-6.648
		c2.743-0.541,5.458-0.781,8.068-0.712c4.252,0.113,8.548,0.747,10.791,1.619c-1.128,1.44-3.349,3.116-4.083,3.785
		c-0.682,0.621-1.269,1.189-1.816,1.72c-2.62,2.537-4.063,3.935-12.547,6.621C475.98,287.481,474.031,287.75,472.029,287.696
		L472.029,287.696z"/>
	<path style="fill:#754C24;" d="M479.15,286.469c-5.062-0.135-6.246-2.446-7.5-4.392c-1.106-1.715-1.17-5.948-1.17-5.948
		s4.41-3.191,12.385-3.044c4.253,0.079,11.158,0.816,13.401,1.688c-1.128,1.44-5.314,5.014-5.899,5.504
		C484.569,285.133,479.15,286.469,479.15,286.469z"/>
	<path style="fill:#42210B;" d="M494.979,276.183c0,0-3.05-0.827-4.077-1.051c-1.299-0.284-4.53-0.817-5.31,0.259
		c-0.402,0.557,0.559,2.031,0.272,2.735c-0.333,0.818-1.494,0.988-2.371,1.09c-0.783,0.091-2.459-0.18-3.083-0.662
		c-0.455-0.352-1.038-2.053-1.038-2.053s-1.917-0.222-2.654-0.163c-3.331,0.267-6.077,2.034-6.077,2.034l-0.16-2.243
		c0,0,5.324-3.096,10.076-3.106c1.733-0.004,6.065,0.163,7.795,0.287c2.007,0.145,7.915,1.463,7.915,1.463L494.979,276.183z"/>
	
		<ellipse transform="matrix(0.9996 0.0266 -0.0266 0.9996 7.4857 -12.8163)" style="fill:#FFFFFF;" cx="485.826" cy="275.166" rx="1.828" ry="1.865"/>
</g>
<g>
	<path style="stroke:#000000;stroke-width:0.75;stroke-miterlimit:10;" d="M574.141,236.614c0,0-13.84-5.564-24.946,3.528
		c-1.938,1.586-12.484,10.179-13.372,13.543c-1.252,4.749-1.927,7.312-1.927,7.312s10.64,4.597,24.32-1.87
		c4.01-1.896,7.512-4.317,11.613-13.413C572.76,239.219,574.141,236.614,574.141,236.614z"/>
	<path style="fill:#FFFFFF;stroke:#000000;stroke-width:0.5;stroke-miterlimit:10;" d="M533.535,261.338
		c0.603-1.219,1.322-2.697,2.12-4.383c1.22-2.578,5.156-8.717,11.958-12.534c2.628-1.473,6.931-3.375,9.627-4.177
		c4.395-1.307,13.108-3.127,15.699-2.98c-0.674,1.858-4.541,8.179-5.069,9.112c-0.489,0.866-3.631,6.053-4.358,7.021
		c-2.069,2.753-5.491,4.558-8.677,5.864c-1.737,0.712-5.18,1.353-7.247,1.967C547.588,261.229,536.976,262.113,533.535,261.338z"/>
	<path style="fill:#754C24;" d="M544.775,246.261c0,0-0.377,4.342,2.677,8.803c2.308,3.37,6.477,4.518,6.477,4.518
		s6.68-2.008,9.583-6.185c1.712-2.465,5.468-9.075,5.468-9.075s-0.569-2.971-1.119-3.792c-0.485-0.729-2.724-2.201-2.724-2.201
		s-6.521,1.54-8.664,2.16C549.958,242.373,544.775,246.261,544.775,246.261z"/>
	<path style="fill:#333333;" d="M533.535,261.338c0,0-0.114-7.748,0.688-9.816c1.146-2.952,4.023-5.859,7.104-9.026
		c2.848-2.923,10.726-8.411,14.636-9.579c3.832-1.146,12.045-0.176,15.971-0.934c2.552-0.493,10.046-2.32,10.046-2.32
		s-7.19,16.177-11.012,20.588c-3.13,3.612-10.992,9.474-15.396,11.327C547.944,264.787,533.535,261.338,533.535,261.338l2.284,0.351
		c0,0,15.029,0.762,19.566-1.087c4.406-1.795,10.804-9.443,13.672-13.24c1.837-2.43,5.083-10.748,5.083-10.748
		s-13.156-1.944-16.785-0.84c-3.874,1.179-10.428,6.276-13.596,8.795c-2.366,1.88-6.488,6.283-7.938,9.116
		C534.914,255.463,533.535,261.338,533.535,261.338z"/>
	<path style="fill:#666666;" d="M533.535,261.338c0,0-0.038-6.812,0.875-8.834c4.298-9.51,15.354-15.388,20.177-18.022
		c3.563-1.946,10.923-0.432,16.181-1.336c4.271-0.735,7.067-2.488,7.067-2.488s-2.359-8.66-4.948-10.443
		c-2.147-1.481-15.118,4.05-19.914,6.311c-5.679,2.676-15.914,9.407-18.047,15.31C533.226,246.538,533.535,261.338,533.535,261.338z
		"/>
	<path style="fill:#42210B;" d="M544.77,246.235l0.501,4.063c0,0,1.442-1.61,3.819-2.676c2.032-0.91,2.619-0.498,2.619-0.498
		s0.204,3.188,2.746,3.977c2.034,0.631,4.199-0.232,5.182-1.946c0.949-1.658-0.551-4.285-0.551-4.285s0.68-1.775,2.898-2.591
		c1.44-0.528,5.875-1.76,5.875-1.76l-2.725-2.195c0,0-6.523,1.53-8.666,2.15C549.955,242.357,544.77,246.235,544.77,246.235z"/>
	<path style="fill:#FFFFFF;" d="M561.096,244.815c0.2,1.05-0.623,2.092-1.841,2.323c-1.222,0.232-2.37-0.434-2.569-1.484
		c-0.201-1.052,0.623-2.093,1.844-2.326C559.748,243.097,560.897,243.763,561.096,244.815z"/>
</g>
<path style="fill:#FF7BAC;stroke:#BF5C81;stroke-miterlimit:10;" d="M437.14,89.602c0,0-34.763,1.583-43.073,3.231
	c-27.066,5.371-41.331,26.413-47.28,40.857c-10.721,26.03-12.955,40.88-23.641,49.46c-5.754,4.62-41.919-2.151-41.919-2.151
	s25.963,11.397,35.247,12.483c6.504,0.761,26.043-2.806,26.043-2.806s-29.958,20.568-34.409,34.409
	c-4.667,14.511,12.49,41.967,7.526,54.901c-1.126,2.934-10.751,6.513-10.751,6.513s15.155-0.816,20.118,0
	c7.361,1.21,21.793,3.85,28.269,7.554c11.809,6.753,34.083,16.068,43.01,26.333c21.506,24.731,5.377,69.892,5.377,69.892
	l21.505-46.236c0,0,23.09,29.416,4.302,53.764c-15.711,20.36-45.613,13.301-45.613,13.301s51.998,17.54,74.193-23.107
	c9.692-17.75,9.678-32.807,9.678-32.807s35.714,26.22,30.546,18.807c-9.828-14.097-21.574-56.013-31.17-70.269
	c-13.456-19.991-60.215-73.269-60.215-73.269s24.76,10.261,32.258,15.054c9.483,6.062,34.409,29.032,34.409,29.032
	s-41.093-70.391-53.688-79.946c-31.183-23.656,55.839,41.237,55.839,41.237s-41.423-62.398-32.258-50.538
	c18.279,23.656,61.29,41.935,61.29,41.935s-5.884-33.639,1.314-38.709c10.29-7.249,39.416-5.551,48.193-14.572
	C560.363,165.605,564.5,129,564.5,129s27.685,102.333,33.779,136.946c3.151,17.897,6.474,44.438,9.678,63.043
	C613.152,359.154,577.835,482,577.835,482S654.071,369.894,673,253.284c8-49.284-4.838-106.912-17.581-138.951
	c-10.521-26.45-47.336-74.035-72.043-88.172c-16.764-9.592-57.85-17.393-76.344-11.828C445,33,437.14,89.602,437.14,89.602z"/>
<path style="fill:none;stroke:#333333;stroke-miterlimit:10;" d="M525.333,285.665c0,0,2.286,11.228,2,15
	c-0.315,4.155-4.666,16-4.666,16s8.568,0.749,10.846,2.333c1.46,1.016,3.82,3.667,3.82,3.667"/>
<path style="fill:none;stroke:#333333;stroke-miterlimit:10;" d="M532,352c12.376,0.005,25.783-1.514,33-13"/>
<g>
	<path style="stroke:#000000;stroke-miterlimit:10;" d="M415.571,1053.188c0,0,64.429,5.812,144.353-19.221
		c25.762-8.068,99.941-40.898,99.941-40.898s10.823,28.999,12.635,39.114c1.667,9.306,1.193,28.438,0,37.816
		c-1.046,8.217-8.296,32.08-8.296,32.08S536.035,1083.219,493,1080c-21.691-1.622-86.989-1.834-86.989-1.834L415.571,1053.188z"/>
	<path style="fill:#FFFFFF;stroke:#000000;stroke-miterlimit:10;" d="M415.571,1053.188c0,0,62.429,6.812,130.188-15.055
		c67.197-21.685,114.106-45.064,114.106-45.064l-14.161-23.168c0,0-79.149,31.979-105.909,41.644
		C497,1027,422.761,1030.437,422.761,1030.437L415.571,1053.188z"/>
</g>
<path style="fill:#754C24;" d="M484.745,609.887c0,0-4.918,7.148-14.365,12.628c-9.272,5.38-16.38,4.443-16.38,4.443v6.081
	c0,0,7.511,2.338,17.647-4.683c11.062-7.664,14.161-16.451,14.161-16.451L484.745,609.887z"/>
<path style="fill:#006E34;stroke:#024E00;stroke-miterlimit:10;" d="M533.896,440.156l-42.608,53.227l-10.073,17.585
	c0,0-18.171,35.299-27.219,44.771C444.429,565.753,417.89,580.02,413,593c-3.203,8.503,5,36,5,36s1.945,18.442,2.226,29.027
	C420.917,684.074,406.011,834,406.011,834S433,807,449,760c8.534-25.069,20.953-129.179,20.953-169c0-40,9.047-71,9.047-71
	l12.287-26.617L533.896,440.156z"/>
<path style="fill:#754C24;" d="M632.667,592c0,0-8.047,10.189-23.667,18c-15.333,7.667-27,6.333-27,6.333V625
	c0,0,12.334,3.333,29.096-6.675c18.293-10.922,23.373-23.447,23.373-23.447L632.667,592z"/>
<path style="fill:#006E34;stroke:#024E00;stroke-miterlimit:10;" d="M648.161,407.888c0,0-12.799,62.705-21.36,82.112
	c-10.457,23.703-54.268,46.787-71.801,63c-9.875,9.131-26.271,30.993-32.333,43c-15.351,30.405-33.656,96.522-46.667,128
	c-10.944,26.479-30.238,83.66-52.25,102c-5.512,4.593-27.25,9-27.25,9s5.25,49.621,0,65c-1.123,3.289-7.536,7.661-8.5,11
	c-4.17,14.438,12,58.901,12,58.901s11.597-3.119,15.571-3.417c12.85-0.964,38.709,5.481,51.429,3.417
	c12.244-1.987,49.387-17.479,60-23.901c15.191-9.191,57-33,57-33s-31.389-24.483-40.205-34c-5.698-6.15-15.97-17.743-11.795-31
	c57-181,42.141-209.922,59-251c10.664-25.983,35.801-107,35.801-107L648.161,407.888z"/>
<path style="fill:#004923;" d="M409,826c0,0,10.551-7.604,19-73c2.668-20.651,7-83,7-83s13.836,59.286,8,78
	C422.248,814.546,409,826,409,826z"/>
<path style="fill:#004923;" d="M548,634c0,0-17.821,70.506-30.263,91C491.158,768.784,461,813,461,813s38-37,60.943-84
	C532.747,706.869,548,634,548,634z"/>
<path style="fill:#004923;" d="M398.81,872.993c0,0,12.92,22.569,10.19,30.007c-2.176,5.929-21,8-21,8l8-8L398.81,872.993z"/>
<path style="fill:#004923;" d="M567.536,717.898c0,0-12.478,51.258-17.102,68.223c-3.828,14.044-12.347,41.889-16.539,55.828
	c-1.026,3.411-3.184,10.431-2.797,13.971c0.507,4.638,7.528,17.073,7.528,17.073L517.737,901c0,0-8.185-14.807-13.237-16
	c-5.718-1.351-21.5,9.49-21.5,9.49s-2.645-17.896-7-21.497c-6.13-5.068-31.564-3.993-31.564-3.993S467.48,852.722,474,846
	C501.609,817.536,567.536,717.898,567.536,717.898z"/>
<path style="fill:#006E34;stroke:#000000;stroke-miterlimit:10;" d="M399.186,970.988c0,0-7.911,10.81-11.873,12.512
	c-6.733,2.893-27.826-7.176-29.313,0c-1.795,8.663,34,9.819,34,9.819s-21.688,9.105-12.792,10.065
	c19.125,2.064,17.536-6.521,26.792,1.115c4.362,3.6,3.92,20.269,9.571,20.5c9.127,0.373,15.3-26.809,24.429-27.174
	c6.284-0.251,14.481,13.725,20.75,14.221c3.517,0.278,11.411-2.782,12.75-6.047c1.993-4.857-3.275-16.896,0-21
	c3.057-3.83,16.792,6.709,21.5,8.069c5.646,1.631,6.082,9.87,11.291,7.15c3.214-1.678,3.145-14.24,5.209-17.22
	c2.518-3.635,12.778-4.797,17.167-4.257c5.431,0.668,14.348,12.511,19.333,10.257c4.561-2.062,1.921-16.199,6-19.099
	c2.759-1.962,11.738,3.279,13.536,0.41c2.949-4.705-2.16-9.969,0-14.312c2.466-4.957,8.928-8.062,14.464-8
	c5.317,0.06,8.713,4.815,13.5,2.5c4.389-2.123,0-19.5,0-19.5s10.395,9.779,12.734,7c5.563-6.606-21.553-27-21.553-27
	s-14.344,8.586-19.146,11.413c-13.734,8.087-41.35,24.043-55.536,31.308c-8.952,4.584-27.564,12.749-37.415,14.779
	c-9.203,1.897-28.228,0.858-37.585,0c-4.021-0.369-11.987-2.217-16.022-2.06C415.417,966.657,399.186,970.988,399.186,970.988z"/>
<path style="fill:#004923;" d="M415.571,987c-4.229,0.718-6.809,11.756-6.192,16c0.55,3.787,6.192,22,6.192,22
	s10.051-16.043,10.429-20C426.494,999.822,420.699,986.13,415.571,987z"/>
<path style="fill:#004923;" d="M451.5,976.312c0,0-0.484,27.993,2.5,31.688c2.513,3.112,13.179,2.836,16,0
	c3.35-3.367-3-32.099-3-32.099L451.5,976.312z"/>
<path style="fill:#004923;" d="M491.42,967.507c0,0-0.304,15.845,1.58,18.493c1.764,2.48,13.291,14.22,13.291,14.22L512,953.721
	L491.42,967.507z"/>
<path style="fill:#004923;" d="M567.536,934c-0.141,4.257,10.237,8.479,14.464,9c3.648,0.45,13.5,7.5,13.5,7.5
	s-1.401-26.931-5.5-28.5C584.054,919.723,567.746,927.636,567.536,934z"/>
<g>
	<path style="fill:none;stroke:#BF5C81;stroke-miterlimit:10;" d="M441,102c-6.845-17.549-62.348-18.22-89.023,9.203
		c-10.453,10.746-15.22,27.553-21.255,40.794C323.889,166.992,310.372,210.709,295,220"/>
	<path style="fill:none;stroke:#BF5C81;stroke-miterlimit:10;" d="M434,114c-14.433-10.043-47.263,9.065-55.945,21.032
		c-17.64,24.313-5.927,67.352,3.945,90.968c9.982,23.879,29.15,45.755,44.718,66.449C444.436,316,468.164,345.746,444.436,365"/>
	<path style="fill:none;stroke:#BF5C81;stroke-miterlimit:10;" d="M389,205c17.569-2.834,37.771,16.652,46,29"/>
	<path style="fill:none;stroke:#BF5C81;stroke-miterlimit:10;" d="M421,178c9.128,8.107,12.912,19.082,24,26"/>
	<path style="fill:none;stroke:#BF5C81;stroke-miterlimit:10;" d="M452,134c10.017,16.259,20.617,30,26.223,48.052
		c2.742,8.829,5.053,19.601,10.777,26.948"/>
	<path style="fill:none;stroke:#BF5C81;stroke-miterlimit:10;" d="M545,84c18.23-2.332,36.762,14.854,47.052,28
		c17.679,22.585,27.71,49.032,32.944,76.836c3.524,18.72,4.967,41.216,3.027,60.429c-0.886,8.772-0.259,30.433-7.023,35.735"/>
	<path style="fill:none;stroke:#BF5C81;stroke-miterlimit:10;" d="M496,197c-3.741-7.898-9.344-14.169-11.246-23
		c-1.965-9.126-0.155-18.852,0.246-27.977c0.942-21.478-7.109-55.037,7.202-73.708c15.431-20.132,50.245-17.641,70.817-9.088
		c34.871,14.497,51.65,55.454,59.203,89.829c8.519,38.771,7.873,81.36,3.503,120.941c-2.923,26.477-2.261,58.1-10.726,83.003"/>
	<path style="fill:none;stroke:#BF5C81;stroke-miterlimit:10;" d="M455,84c11.64,2.895,20.249,4.081,27.726,13.924
		c6.912,9.099,12.953,19.791,18.083,29.884c8.174,16.082,7.35,32.715,13.19,48.192"/>
	<path style="fill:none;stroke:#BF5C81;stroke-miterlimit:10;" d="M473,70c8.546-31.105,56.382-31.642,80.372-24.607
		c31.451,9.223,47.389,32.761,62.1,61.216C642.722,159.317,661.554,227.24,656,287"/>
	<path style="fill:none;stroke:#BF5C81;stroke-miterlimit:10;" d="M363,139c-18.032,16.944-17,39.007-17,62.052
		c0,24.721,0.25,48.955,7.171,72.393c6.257,21.191,20.282,40.576,32.407,58.436c4.266,6.283,8.139,12.519,12.171,19.178
		C405.039,363.1,408.868,374.183,414,387"/>
</g>
</svg>
