<?xml version="1.0" encoding="utf-8"?>
<!-- Generator: Adobe Illustrator 16.0.0, SVG Export Plug-In . SVG Version: 6.00 Build 0)  -->
<!DOCTYPE svg PUBLIC "-//W3C//DTD SVG 1.1//EN" "http://www.w3.org/Graphics/SVG/1.1/DTD/svg11.dtd">
<svg version="1.1" id="star_in_3d_layer" xmlns="http://www.w3.org/2000/svg" xmlns:xlink="http://www.w3.org/1999/xlink" x="0px" y="0px" width="640px" height="480px" viewBox="0 0 640 480" style="enable-background:new 0 0 640 480;" xml:space="preserve">
<style tpye="text/css">
@media screen and (max-width:500px){
#star_in_3d_layer{
	width: 400px;
	height: 300px;
}
}
</style>
<g>
	<g>
		<g style="enable-background:new    ;">
			<g>
				<polygon style="fill:#457011;" points="421.943,235.271 385.354,224.811 434.859,115.529 471.449,125.989 				"/>
			</g>
			<g>
				<polygon style="fill:#329810;" points="455.638,330.031 419.048,319.571 385.354,224.811 421.943,235.271 				"/>
			</g>
			<g>
				<polygon style="fill:#3E7F11;" points="369.029,325.918 332.439,315.458 419.048,319.571 455.638,330.031 				"/>
			</g>
			<g>
				<polygon style="fill:#00FF03;" points="381.713,160.72 345.123,150.26 434.859,115.529 471.449,125.99 				"/>
			</g>
			<g>
				<polygon style="fill:#466D11;" points="382.119,159.781 345.529,149.32 436.259,114.035 472.849,124.496 				"/>
			</g>
			<g>
				<polygon style="fill:#496811;" points="300.175,419.413 263.585,408.953 332.439,315.458 369.029,325.918 				"/>
			</g>
			<g>
				<polygon style="fill:#00FF05;" points="300.175,419.413 263.585,408.953 259.577,297.313 296.167,307.773 				"/>
			</g>
			<g>
				<polygon style="fill:#388B10;" points="299.56,421.436 262.97,410.976 258.91,297.84 295.5,308.3 				"/>
			</g>
			<g>
				<polygon style="fill:#309C10;" points="381.82,160.852 345.23,150.391 289.186,78.694 325.775,89.155 				"/>
			</g>
			<g>
				<polygon style="fill:#00FF04;" points="304.063,205.542 267.473,195.082 289.186,78.695 325.775,89.155 				"/>
			</g>
			<g>
				<polygon style="fill:#3E7E11;" points="303.504,204.972 266.914,194.512 288.869,76.838 325.459,87.298 				"/>
			</g>
			<g>
				<polygon style="fill:#00FF06;" points="296.167,307.773 259.577,297.313 183.382,260.059 219.972,270.519 				"/>
			</g>
			<g>
				<polygon style="fill:#00FF03;" points="219.972,270.519 183.382,260.059 267.473,195.082 304.063,205.542 				"/>
			</g>
			<g>
				<path style="fill:#535412;" d="M422.729,235.134l34.111,95.938l-87.677-4.162l-69.604,94.525L295.5,308.3l-77.192-37.496
					l85.196-65.832l21.955-117.674l56.66,72.483l90.729-35.285L422.729,235.134z M369.029,325.918l86.608,4.113l-33.694-94.761
					l49.506-109.281l-89.629,34.862l-56.045-71.697l-21.713,116.387l-84.091,64.976l76.188,37.006l4.015,111.89L369.029,325.918"/>
			</g>
			<g>
				<polygon style="fill:#00FF02;" points="325.775,89.155 381.713,160.72 471.449,125.99 422.063,235.011 455.638,330.031 
					369.185,325.932 300.175,419.413 296.167,307.773 219.972,270.519 304.063,205.542 				"/>
			</g>
			<g>
				<polygon style="fill:#309C10;" points="295.5,308.3 258.91,297.84 181.718,260.344 218.308,270.804 				"/>
			</g>
			<g>
				<polygon style="fill:#4A6611;" points="218.308,270.804 181.718,260.344 266.914,194.512 303.504,204.972 				"/>
			</g>
		</g>
	</g>
</g>
</svg>
