<?xml version="1.0" encoding="utf-8"?>
<!-- Generator: Adobe Illustrator 16.0.0, SVG Export Plug-In . SVG Version: 6.00 Build 0)  -->
<!DOCTYPE svg PUBLIC "-//W3C//DTD SVG 1.1//EN" "http://www.w3.org/Graphics/SVG/1.1/DTD/svg11.dtd">
<svg version="1.1" id="svg_layer_1" xmlns="http://www.w3.org/2000/svg" xmlns:xlink="http://www.w3.org/1999/xlink" x="0px" y="0px" width="600px" height="600px" viewBox="0 0 600 600" style="enable-background:new 0 0 600 600;" xml:space="preserve">
<style type="text/css">
#windmill_wings{
	cursor: pointer;
}
#windmill_wings:hover{
	stroke: #999999;
}
#windmill_wings:active{
	stroke: #333333;
}
@media screen and (max-width: 500px){
	#svg_layer_1{
		width: 400px;
		height: 400px;
	}
}
</style>
<path style="fill:#754C24;stroke:#603813;stroke-miterlimit:10;" d="M145.332,534.617l-18.113-9.667l172.439-287.562l15.791,8.731	L145.332,534.617z"/>
<g id="windmill_wings">
	<g>
		<path style="fill:#DBEF00;" d="M305.698,237.455l70.917,70.668l60.804-70.668c23.074-38.719,28.841-47.745,35.493-65.294
			c25.66-67.701,15.281-104.592,15.281-104.592L305.698,237.455z"/>
		<linearGradient id="SVGID_1_" gradientUnits="userSpaceOnUse" x1="409.4209" y1="275.3169" x2="338.6287" y2="204.5247">
			<stop  offset="0.0056" style="stop-color:#9EA100"/>
			<stop  offset="0.1348" style="stop-color:#F6FF0D"/>
			<stop  offset="0.1816" style="stop-color:#FCFF04"/>
			<stop  offset="0.2405" style="stop-color:#FFFF00"/>
			<stop  offset="0.3399" style="stop-color:#F5F931"/>
			<stop  offset="0.4715" style="stop-color:#E8F16C"/>
			<stop  offset="0.5989" style="stop-color:#DEEB9D"/>
			<stop  offset="0.7186" style="stop-color:#D6E6C2"/>
			<stop  offset="0.8287" style="stop-color:#D1E3DE"/>
			<stop  offset="0.9259" style="stop-color:#CDE1EE"/>
			<stop  offset="1" style="stop-color:#CCE0F4"/>
		</linearGradient>
		<path style="fill:url(#SVGID_1_);" d="M305.698,237.455l70.917,70.668l60.804-70.668c0,0-31.67,14.671-68.137,6.337
			c-46.666-10.664-52.239-16.898-52.239-16.898L305.698,237.455z"/>
	</g>
	<g>
		<path style="fill:#4947FF;" d="M305.046,237.864l72.975-68.541l-68.619-63.108C271.467,81.874,260.7,74.796,243.38,67.569
			c-66.814-27.885-104.432-18.114-104.432-18.114L305.046,237.864z"/>
		<linearGradient id="SVGID_2_" gradientUnits="userSpaceOnUse" x1="345.8623" y1="137.7808" x2="275.1354" y2="208.5077">
			<stop  offset="0.0056" style="stop-color:#005B97"/>
			<stop  offset="0.1348" style="stop-color:#0075BE"/>
			<stop  offset="0.1367" style="stop-color:#0176BF"/>
			<stop  offset="0.1723" style="stop-color:#118BCC"/>
			<stop  offset="0.2072" style="stop-color:#1B98D4"/>
			<stop  offset="0.2405" style="stop-color:#1E9CD7"/>
			<stop  offset="0.3503" style="stop-color:#45ABDD"/>
			<stop  offset="0.5054" style="stop-color:#75BEE5"/>
			<stop  offset="0.6529" style="stop-color:#9BCDEC"/>
			<stop  offset="0.7887" style="stop-color:#B6D7F0"/>
			<stop  offset="0.9086" style="stop-color:#C6DEF3"/>
			<stop  offset="1" style="stop-color:#CCE0F4"/>
		</linearGradient>
		<path style="fill:url(#SVGID_2_);" d="M304.583,237.955l73.777-67.677l-67.379-62.611c0,0,12.744,30.996,2.784,67.053
			c-12.746,46.141-19.224,51.429-19.224,51.429L304.583,237.955z"/>
	</g>
	<g>
		<path style="fill:#00FF00;" d="M305.077,237.763l-66.79-75.626l-65.631,68.471c-25.822,36.942-35.8,61.703-41.708,79.515
			c-23.255,70.115-17,102.332-17,102.332L305.077,237.763z"/>
		<linearGradient id="SVGID_3_" gradientUnits="userSpaceOnUse" x1="277.7324" y1="266.6333" x2="205.7622" y2="194.6631">
			<stop  offset="0" style="stop-color:#CCE0F4"/>
			<stop  offset="0.0927" style="stop-color:#CAE2EE"/>
			<stop  offset="0.2143" style="stop-color:#C2E6DE"/>
			<stop  offset="0.352" style="stop-color:#B7EDC3"/>
			<stop  offset="0.5004" style="stop-color:#A7F79D"/>
			<stop  offset="0.6019" style="stop-color:#9AFF7F"/>
			<stop  offset="0.6479" style="stop-color:#96FF7B"/>
			<stop  offset="0.6962" style="stop-color:#89FF6E"/>
			<stop  offset="0.7455" style="stop-color:#75FF59"/>
			<stop  offset="0.7953" style="stop-color:#58FF3C"/>
			<stop  offset="0.8208" style="stop-color:#46FF2A"/>
			<stop  offset="0.9944" style="stop-color:#00E92F"/>
		</linearGradient>
		<path style="fill:url(#SVGID_3_);" d="M306.016,238.349l-67.729-76.212l-63.631,66.471c0,0,32.668-12.288,68.419-1.281
			c45.749,14.087,50.846,20.716,50.846,20.716L306.016,238.349z"/>
	</g>
	<g>
		<path style="fill:#FF00FF;" d="M305.145,238.265l-72.63,65.992l73.929,65.722c38.944,22.691,47.503,28.124,65.115,34.602
			c67.95,24.992,111.069,10.19,111.069,10.19L305.145,238.265z"/>
		<linearGradient id="SVGID_4_" gradientUnits="userSpaceOnUse" x1="267.1401" y1="338.8823" x2="336.3448" y2="269.6777">
			<stop  offset="0.0056" style="stop-color:#94008D"/>
			<stop  offset="0.1348" style="stop-color:#FF15DF"/>
			<stop  offset="0.1596" style="stop-color:#FF2EE1"/>
			<stop  offset="0.1873" style="stop-color:#FF43E2"/>
			<stop  offset="0.2145" style="stop-color:#FF50E3"/>
			<stop  offset="0.2405" style="stop-color:#FF54E3"/>
			<stop  offset="0.2561" style="stop-color:#FD59E4"/>
			<stop  offset="0.4339" style="stop-color:#EC89E9"/>
			<stop  offset="0.6027" style="stop-color:#DEAFEE"/>
			<stop  offset="0.7581" style="stop-color:#D4CAF1"/>
			<stop  offset="0.8954" style="stop-color:#CEDAF3"/>
			<stop  offset="1" style="stop-color:#CCE0F4"/>
		</linearGradient>
		<path style="fill:url(#SVGID_4_);" d="M305.065,238.399l-72.551,65.858l73.642,64.858c0,0-14.933-30.546-6.9-67.083
			c10.276-46.75,16.465-52.376,16.465-52.376L305.065,238.399z"/>
	</g>
</g>
<circle style="fill:#FFFFFF;stroke:#FFFFFF;stroke-miterlimit:10;" cx="305.948" cy="237.455" r="50"/>
<circle style="fill:#ED1E79;" cx="305.948" cy="237.455" r="40"/>
<script><![CDATA[
var myVar = {
	id_of_setinterval: null,
	isWindmillRunning: false,
	angle: 0,
	SVG_windmill: null
};
	myVar.SVG_windmill = document.getElementById('windmill_wings');
	myVar.SVG_windmill.onclick = function(e){
		e.preventDefault();

		if(!myVar.isWindmillRunning){
			myVar.id_of_setinterval = setInterval('runTheWindmill()',35);
		} else{
			clearInterval(myVar.id_of_setinterval);
		}

		myVar.isWindmillRunning = !myVar.isWindmillRunning;
	};

function runTheWindmill(){
	var angle = myVar.angle;
	myVar.SVG_windmill.setAttribute('transform','rotate('+ angle +',305.948,237.455)');
	myVar.angle += 1;
	if(myVar.anglel>360){
		myVar.angle -= 360;
	}
}

]]>
</script>
</svg>
